<svg width="20" height="16" viewBox="0 0 20 16" fill="none" xmlns="http://www.w3.org/2000/svg">
<g id="mosque-solid 1" clip-path="url(#clip0_114_623)">
<path id="Vector" d="M12.5 0C12.6562 0 12.8062 0.075 12.9 0.2C13.9844 1.64688 15.3406 2.54063 17.0719 3.68438C17.2344 3.79063 17.4 3.90313 17.5719 4.01562C18.475 4.61562 19 5.63125 19 6.70625C19 7.6 18.6469 8.40938 18.0688 9H6.93125C6.35625 8.40625 6 7.59688 6 6.70625C6 5.63125 6.52187 4.61562 7.42812 4.01562C7.59687 3.90313 7.76562 3.79375 7.92812 3.68438C9.65938 2.54063 11.0156 1.64688 12.1 0.2C12.1938 0.075 12.3438 0 12.5 0ZM9 16V13.75C9 13.3344 8.66562 13 8.25 13C7.83437 13 7.5 13.3344 7.5 13.75V16H6C5.44688 16 5 15.5531 5 15V11C5 10.4469 5.44688 10 6 10H19C19.5531 10 20 10.4469 20 11V15C20 15.5531 19.5531 16 19 16H17.5V13.75C17.5 13.3344 17.1656 13 16.75 13C16.3344 13 16 13.3344 16 13.75V16H14V14.1875C14 13.5938 13.7375 13.0312 13.2812 12.65L12.5 12L11.7188 12.65C11.2625 13.0312 11 13.5938 11 14.1875V16H9ZM2.2 0.1625C2.37812 0.028125 2.62188 0.028125 2.8 0.1625L3.3 0.5375C4.36875 1.34063 5 2.6 5 3.9375V4H0V3.9375C0 2.6 0.63125 1.34063 1.7 0.5375L2.2 0.1625ZM0 5H5V9.26875C4.40312 9.61563 4 10.2594 4 11V15C4 15.3 4.06563 15.5812 4.18125 15.8375C3.975 15.9437 3.74375 16 3.5 16H1.5C0.671875 16 0 15.3281 0 14.5V5.5V5Z" fill="#371E11"/>
</g>
<defs>
<clipPath id="clip0_114_623">
<rect width="20" height="16" fill="white"/>
</clipPath>
</defs>
</svg>
