<svg width="16" height="16" viewBox="0 0 16 16" fill="none" xmlns="http://www.w3.org/2000/svg">
<g id="ic_fluent_clock_24_filled 1">
<path id="Vector" d="M10.1673 8.99999H7.50065C7.36804 8.99999 7.24087 8.94732 7.1471 8.85355C7.05333 8.75978 7.00065 8.6326 7.00065 8.49999V4.49999C7.00065 4.36739 7.05333 4.24021 7.1471 4.14644C7.24087 4.05267 7.36804 3.99999 7.50065 3.99999C7.63326 3.99999 7.76044 4.05267 7.8542 4.14644C7.94797 4.24021 8.00065 4.36739 8.00065 4.49999V7.99999H10.1673C10.2999 7.99999 10.4271 8.05267 10.5209 8.14644C10.6146 8.24021 10.6673 8.36739 10.6673 8.49999C10.6673 8.6326 10.6146 8.75978 10.5209 8.85355C10.4271 8.94732 10.2999 8.99999 10.1673 8.99999ZM8.00065 1.33333C4.31932 1.33333 1.33398 4.31866 1.33398 7.99999C1.33398 11.6813 4.31932 14.6667 8.00065 14.6667C11.682 14.6667 14.6673 11.6813 14.6673 7.99999C14.6673 4.31866 11.682 1.33333 8.00065 1.33333Z" fill="#1C1B1F"/>
</g>
</svg>
