<svg width="24" height="24" viewBox="0 0 24 24" fill="none" xmlns="http://www.w3.org/2000/svg">
<g id="ic_fluent_filter_24_filled 1">
<path id="Vector" d="M10.0008 16H14.0008C14.2557 16.0003 14.5009 16.0979 14.6862 16.2728C14.8715 16.4478 14.9831 16.687 14.998 16.9414C15.013 17.1958 14.9302 17.4464 14.7666 17.6418C14.603 17.8373 14.3709 17.9629 14.1178 17.993L14.0008 18H10.0008C9.74597 17.9997 9.50081 17.9021 9.31548 17.7272C9.13014 17.5522 9.01861 17.313 9.00367 17.0586C8.98874 16.8042 9.07152 16.5536 9.23511 16.3582C9.3987 16.1627 9.63075 16.0371 9.88385 16.007L10.0008 16ZM8.00084 11H16.0008C16.2557 11.0003 16.5009 11.0979 16.6862 11.2728C16.8715 11.4478 16.9831 11.687 16.998 11.9414C17.013 12.1958 16.9302 12.4464 16.7666 12.6418C16.603 12.8373 16.3709 12.9629 16.1178 12.993L16.0008 13H8.00084C7.74597 12.9997 7.50081 12.9021 7.31548 12.7272C7.13014 12.5522 7.01861 12.313 7.00367 12.0586C6.98874 11.8042 7.07152 11.5536 7.23511 11.3582C7.3987 11.1627 7.63075 11.0371 7.88384 11.007L8.00084 11ZM5.00085 6H19.0008C19.2557 6.00028 19.5009 6.09788 19.6862 6.27285C19.8715 6.44782 19.9831 6.68695 19.998 6.94139C20.013 7.19584 19.9302 7.44638 19.7666 7.64183C19.603 7.83729 19.3709 7.9629 19.1178 7.993L19.0008 8H5.00085C4.74597 7.99972 4.50081 7.90212 4.31548 7.72715C4.13014 7.55218 4.01861 7.31305 4.00367 7.05861C3.98874 6.80416 4.07152 6.55362 4.23511 6.35817C4.3987 6.16271 4.63075 6.0371 4.88384 6.007L5.00085 6Z" fill="#212121"/>
</g>
</svg>
