<svg width="16" height="16" viewBox="0 0 16 16" fill="none" xmlns="http://www.w3.org/2000/svg">
<g id="ic_fluent_location_24_filled (2) 1">
<path id="Vector" d="M12.1046 11.2547L11.3133 12.0373C10.73 12.6093 9.97331 13.3453 9.04265 14.2453C8.76293 14.5158 8.38907 14.667 7.99998 14.667C7.61089 14.667 7.23703 14.5158 6.95731 14.2453L4.62998 11.9813C4.33732 11.694 4.09265 11.452 3.89531 11.2547C3.08356 10.4429 2.53076 9.40856 2.30682 8.28257C2.08288 7.15659 2.19786 5.98949 2.63721 4.92885C3.07656 3.86821 3.82056 2.96167 4.77512 2.32386C5.72969 1.68605 6.85194 1.34563 7.99998 1.34563C9.14802 1.34563 10.2703 1.68605 11.2248 2.32386C12.1794 2.96167 12.9234 3.86821 13.3628 4.92885C13.8021 5.98949 13.9171 7.15659 13.6931 8.28257C13.4692 9.40856 12.9164 10.4429 12.1046 11.2547ZM9.66665 7.33333C9.66665 6.8913 9.49105 6.46738 9.17849 6.15482C8.86593 5.84226 8.44201 5.66666 7.99998 5.66666C7.55795 5.66666 7.13403 5.84226 6.82147 6.15482C6.50891 6.46738 6.33331 6.8913 6.33331 7.33333C6.33331 7.77536 6.50891 8.19928 6.82147 8.51184C7.13403 8.8244 7.55795 9 7.99998 9C8.44201 9 8.86593 8.8244 9.17849 8.51184C9.49105 8.19928 9.66665 7.77536 9.66665 7.33333Z" fill="#1C1B1F"/>
</g>
</svg>
