<svg width="248" height="191" viewBox="0 0 248 191" fill="none" xmlns="http://www.w3.org/2000/svg">
<path fill-rule="evenodd" clip-rule="evenodd" d="M125.995 0.789451C124.047 -0.280998 121.683 -0.26171 119.752 0.840375L87.0024 19.5381C83.9389 21.2871 82.8732 25.1885 84.6223 28.252C86.3713 31.3156 90.2727 32.3812 93.3362 30.6321L122.979 13.7084L153.871 30.6831C156.962 32.3819 160.846 31.2528 162.545 28.1611C164.244 25.0694 163.114 21.186 160.023 19.4871L125.995 0.789451ZM61.2452 33.9248C63.2504 32.7917 65.7103 32.826 67.6832 34.0144L123.39 67.5702L179.326 34.0086C181.3 32.8247 183.757 32.7937 185.76 33.9275C187.762 35.0613 189 37.1846 189 39.4858V109.399C189 112.927 186.14 115.786 182.613 115.786C179.085 115.786 176.225 112.927 176.225 109.399V50.7672L129.771 78.6395V144.472C129.771 147.999 126.912 150.859 123.384 150.859C119.856 150.859 116.996 147.999 116.996 144.472V78.6322L70.7748 50.7901V109.399C70.7748 112.927 67.9151 115.786 64.3874 115.786C60.8597 115.786 58 112.927 58 109.399V39.4858C58 37.1826 59.2399 35.0578 61.2452 33.9248Z" fill="#BF9033"/>
<path d="M247.796 190H237.812V174.208H240.524V187.312H247.796V190Z" fill="#0E0603"/>
<path d="M218.478 187.84L217.47 190H214.494L221.814 174.208L228.774 190H225.822L224.862 187.84H218.478ZM221.742 180.76L219.726 185.128H223.662L221.742 180.76Z" fill="#0E0603"/>
<path d="M208.383 174.208V176.92H203.631V190H200.943V176.92H196.215V174.208H208.383Z" fill="#0E0603"/>
<path d="M186.928 190H184.216V174.208H186.928V190Z" fill="#0E0603"/>
<path d="M173.874 181.288V190H167.946C166.506 190 165.178 189.648 163.962 188.944C162.762 188.224 161.802 187.256 161.082 186.04C160.378 184.808 160.026 183.472 160.026 182.032C160.026 180.592 160.378 179.264 161.082 178.048C161.802 176.816 162.762 175.84 163.962 175.12C165.178 174.4 166.506 174.04 167.946 174.04C169.05 174.04 170.114 174.264 171.138 174.712C172.162 175.16 173.042 175.8 173.778 176.632L171.786 178.432C171.29 177.888 170.706 177.472 170.034 177.184C169.362 176.896 168.666 176.752 167.946 176.752C167.002 176.752 166.13 176.992 165.33 177.472C164.53 177.936 163.89 178.576 163.41 179.392C162.946 180.192 162.714 181.072 162.714 182.032C162.714 182.992 162.946 183.88 163.41 184.696C163.89 185.496 164.53 186.136 165.33 186.616C166.13 187.08 167.002 187.312 167.946 187.312H171.186V183.976H167.418V181.288H173.874Z" fill="#0E0603"/>
<path d="M150.46 190H147.748V174.208H150.46V190Z" fill="#0E0603"/>
<path d="M133.656 189.376C132.696 189.792 131.664 190 130.56 190H125.616V174.208H130.56C131.664 174.208 132.696 174.416 133.656 174.832C134.632 175.248 135.472 175.848 136.176 176.632C136.832 177.352 137.328 178.184 137.664 179.128C138.016 180.072 138.192 181.056 138.192 182.08C138.192 183.12 138.016 184.112 137.664 185.056C137.328 186 136.832 186.84 136.176 187.576C135.472 188.36 134.632 188.96 133.656 189.376ZM128.304 176.92V187.312H130.56C131.28 187.312 131.944 187.184 132.552 186.928C133.176 186.656 133.712 186.272 134.16 185.776C134.592 185.296 134.92 184.736 135.144 184.096C135.384 183.456 135.504 182.784 135.504 182.08C135.504 181.392 135.384 180.736 135.144 180.112C134.92 179.472 134.592 178.912 134.16 178.432C133.28 177.424 132.08 176.92 130.56 176.92H128.304Z" fill="#0E0603"/>
<path d="M113.829 189.64C113.589 189.4 113.469 189.104 113.469 188.752C113.469 188.416 113.589 188.128 113.829 187.888C114.085 187.632 114.381 187.504 114.717 187.504C115.053 187.504 115.341 187.632 115.581 187.888C115.837 188.128 115.965 188.416 115.965 188.752C115.965 189.104 115.845 189.4 115.605 189.64C115.365 189.88 115.069 190 114.717 190C114.365 190 114.069 189.88 113.829 189.64Z" fill="#0E0603"/>
<path d="M94.4234 187.84L93.4154 190H90.4394L97.7594 174.208L104.719 190H101.767L100.807 187.84H94.4234ZM97.6874 180.76L95.6714 185.128H99.6074L97.6874 180.76Z" fill="#0E0603"/>
<path d="M79.6446 189.352C78.5566 189.88 77.4046 190.144 76.1886 190.144C74.7486 190.144 73.4126 189.784 72.1806 189.064C70.9646 188.328 69.9966 187.344 69.2766 186.112C68.5726 184.88 68.2206 183.536 68.2206 182.08C68.2206 180.624 68.5726 179.28 69.2766 178.048C69.9966 176.816 70.9646 175.84 72.1806 175.12C73.4126 174.4 74.7486 174.04 76.1886 174.04C77.3086 174.04 78.3806 174.272 79.4046 174.736C80.4446 175.184 81.3406 175.832 82.0926 176.68L80.1006 178.48C79.5886 177.92 78.9886 177.488 78.3006 177.184C77.6286 176.88 76.9246 176.728 76.1886 176.728C75.2286 176.728 74.3406 176.968 73.5246 177.448C72.7246 177.928 72.0846 178.584 71.6046 179.416C71.1406 180.232 70.9086 181.12 70.9086 182.08C70.9086 183.04 71.1406 183.936 71.6046 184.768C72.0846 185.584 72.7326 186.24 73.5486 186.736C74.3646 187.216 75.2446 187.456 76.1886 187.456C76.9886 187.456 77.7406 187.28 78.4446 186.928C79.1646 186.576 79.7806 186.088 80.2926 185.464L82.4046 187.144C81.6526 188.088 80.7326 188.824 79.6446 189.352Z" fill="#0E0603"/>
<path d="M57.0743 189.352C55.9863 189.88 54.8343 190.144 53.6183 190.144C52.1783 190.144 50.8423 189.784 49.6103 189.064C48.3943 188.328 47.4263 187.344 46.7063 186.112C46.0023 184.88 45.6503 183.536 45.6503 182.08C45.6503 180.624 46.0023 179.28 46.7063 178.048C47.4263 176.816 48.3943 175.84 49.6103 175.12C50.8423 174.4 52.1783 174.04 53.6183 174.04C54.7383 174.04 55.8103 174.272 56.8343 174.736C57.8743 175.184 58.7703 175.832 59.5223 176.68L57.5303 178.48C57.0183 177.92 56.4183 177.488 55.7303 177.184C55.0583 176.88 54.3543 176.728 53.6183 176.728C52.6583 176.728 51.7703 176.968 50.9543 177.448C50.1543 177.928 49.5143 178.584 49.0343 179.416C48.5703 180.232 48.3383 181.12 48.3383 182.08C48.3383 183.04 48.5703 183.936 49.0343 184.768C49.5143 185.584 50.1623 186.24 50.9783 186.736C51.7943 187.216 52.6743 187.456 53.6183 187.456C54.4183 187.456 55.1703 187.28 55.8743 186.928C56.5943 186.576 57.2103 186.088 57.7223 185.464L59.8343 187.144C59.0823 188.088 58.1623 188.824 57.0743 189.352Z" fill="#0E0603"/>
<path d="M36.8583 190H26.8743V174.208H36.8583V176.92H29.5863V180.736H35.0583V183.448H29.5863V187.312H36.8583V190Z" fill="#0E0603"/>
<path d="M16.6848 190H13.9968V182.392L8.59675 189.928L3.14875 182.368V190H0.460754V173.968L8.59675 185.296L16.6848 173.968V190Z" fill="#0E0603"/>
</svg>
