<svg width="20" height="20" viewBox="0 0 20 20" fill="none" xmlns="http://www.w3.org/2000/svg">
<g id="ic_fluent_attach_24_regular (1) 1">
<path id="Vector" d="M9.80968 3.11916C10.7353 2.19846 11.9842 1.67629 13.2897 1.66425C14.5952 1.6522 15.8536 2.15122 16.796 3.05468C17.7384 3.95814 18.2901 5.19437 18.3331 6.49918C18.3762 7.80399 17.9072 9.07389 17.0264 10.0375L16.868 10.2017L9.53469 17.5333L9.50468 17.5583C8.93358 18.0714 8.1925 18.3546 7.42476 18.353C6.65701 18.3514 5.91712 18.0651 5.34815 17.5497C4.77919 17.0342 4.42156 16.3261 4.34442 15.5622C4.26728 14.7983 4.4761 14.033 4.93052 13.4142C4.95039 13.3757 4.97412 13.3394 5.00135 13.3058L5.04635 13.2558L5.11802 13.1825L5.23635 13.0592L5.23802 13.0617L11.4347 6.84999C11.5405 6.7438 11.6809 6.67915 11.8303 6.66783C11.9798 6.65651 12.1283 6.69928 12.2489 6.78833L12.3189 6.84916C12.4248 6.95488 12.4893 7.09512 12.5007 7.24438C12.512 7.39364 12.4693 7.542 12.3805 7.66249L12.3197 7.73249L5.99135 14.0767C5.69944 14.4362 5.55229 14.8918 5.57874 15.3541C5.60518 15.8165 5.80331 16.2523 6.1343 16.5762C6.4653 16.9001 6.90531 17.0887 7.36813 17.1052C7.83095 17.1216 8.28323 16.9646 8.63635 16.665L15.9964 9.30666C16.6737 8.61213 17.0556 7.68224 17.062 6.71215C17.0685 5.74205 16.6988 4.80718 16.0308 4.10375C15.3627 3.40032 14.4481 2.98302 13.479 2.93944C12.5099 2.89585 11.5615 3.22937 10.833 3.86999L10.693 4.00333L10.6822 4.01499L2.73552 11.9617C2.624 12.0735 2.47428 12.1389 2.31646 12.1449C2.15864 12.1508 2.00442 12.0968 1.88482 11.9936C1.76521 11.8905 1.68909 11.7459 1.67175 11.5889C1.65441 11.432 1.69714 11.2742 1.79135 11.1475L1.85135 11.0775L9.80885 3.11916H9.80968Z" fill="#8D8D8D"/>
</g>
</svg>
