<svg width="18" height="18" viewBox="0 0 18 18" fill="none" xmlns="http://www.w3.org/2000/svg">
<g id="ic_fluent_comment_24_regular 1">
<path id="Vector" d="M3.9375 13.5C3.29103 13.5 2.67105 13.2432 2.21393 12.7861C1.75681 12.329 1.5 11.709 1.5 11.0625V4.6875C1.5 4.04103 1.75681 3.42105 2.21393 2.96393C2.67105 2.50681 3.29103 2.25 3.9375 2.25H14.0625C14.3826 2.25 14.6996 2.31305 14.9953 2.43554C15.291 2.55804 15.5597 2.73758 15.7861 2.96393C16.0124 3.19027 16.192 3.45898 16.3145 3.75471C16.437 4.05044 16.5 4.3674 16.5 4.6875V11.0625C16.5 11.3826 16.437 11.6996 16.3145 11.9953C16.192 12.291 16.0124 12.5597 15.7861 12.7861C15.5597 13.0124 15.291 13.192 14.9953 13.3145C14.6996 13.437 14.3826 13.5 14.0625 13.5H9.759L6 16.3125C5.86071 16.4167 5.69517 16.4802 5.52188 16.4957C5.3486 16.5112 5.17441 16.4782 5.01882 16.4004C4.86322 16.3225 4.73236 16.2029 4.64086 16.055C4.54937 15.907 4.50085 15.7365 4.50075 15.5625V13.5H3.9375ZM9.3855 12.375H14.0625C14.4106 12.375 14.7444 12.2367 14.9906 11.9906C15.2367 11.7444 15.375 11.4106 15.375 11.0625V4.6875C15.375 4.3394 15.2367 4.00556 14.9906 3.75942C14.7444 3.51328 14.4106 3.375 14.0625 3.375H3.9375C3.5894 3.375 3.25556 3.51328 3.00942 3.75942C2.76328 4.00556 2.625 4.3394 2.625 4.6875V11.0625C2.625 11.787 3.213 12.375 3.9375 12.375H5.62425V15.1875L9.3855 12.375Z" fill="#767676"/>
</g>
</svg>
