<svg width="20" height="20" viewBox="0 0 20 20" fill="none" xmlns="http://www.w3.org/2000/svg">
<g id="ic_fluent_emoji_24_regular 1">
<path id="Vector" d="M9.99906 1.66583C14.6024 1.66583 18.3341 5.3975 18.3341 10.0008C18.3341 14.6033 14.6024 18.335 9.99906 18.335C5.39573 18.335 1.66406 14.6033 1.66406 10.0008C1.66406 5.3975 5.39573 1.66583 9.99906 1.66583ZM9.99906 2.91583C9.06224 2.90567 8.1327 3.08142 7.26425 3.43289C6.39579 3.78437 5.60567 4.3046 4.93961 4.96347C4.27356 5.62234 3.74479 6.40678 3.38391 7.27137C3.02304 8.13596 2.83723 9.06353 2.83723 10.0004C2.83723 10.9373 3.02304 11.8649 3.38391 12.7295C3.74479 13.5941 4.27356 14.3785 4.93961 15.0374C5.60567 15.6962 6.39579 16.2165 7.26425 16.5679C8.1327 16.9194 9.06224 17.0952 9.99906 17.085C11.8591 17.0565 13.6333 16.2976 14.9385 14.9721C16.2438 13.6467 16.9754 11.8611 16.9754 10.0008C16.9754 8.14059 16.2438 6.35498 14.9385 5.02955C13.6333 3.70411 11.8591 2.94436 9.99906 2.91583ZM7.05073 12.32C7.40135 12.7667 7.84902 13.1277 8.35984 13.3757C8.87065 13.6238 9.43121 13.7523 9.99906 13.7517C10.5662 13.7523 11.1261 13.6241 11.6364 13.3766C12.1467 13.1292 12.5942 12.769 12.9449 12.3233C13.0477 12.1933 13.1979 12.1094 13.3625 12.0901C13.5272 12.0708 13.6927 12.1176 13.8228 12.2204C13.9529 12.3232 14.0368 12.4734 14.0561 12.6381C14.0754 12.8027 14.0285 12.9683 13.9257 13.0983C13.458 13.6922 12.8616 14.172 12.1814 14.5017C11.5012 14.8314 10.755 15.0024 9.99906 15.0017C9.24219 15.0023 8.49509 14.8308 7.81424 14.5002C7.13339 14.1696 6.53663 13.6885 6.06906 13.0933C5.97089 12.9628 5.92772 12.799 5.94879 12.637C5.96987 12.4751 6.0535 12.3278 6.18181 12.2267C6.31011 12.1256 6.47288 12.0788 6.63528 12.0962C6.79768 12.1137 6.9468 12.194 7.05073 12.32ZM7.49906 7.29167C7.63828 7.28773 7.77687 7.31175 7.90665 7.3623C8.03642 7.41286 8.15474 7.48892 8.2546 7.586C8.35447 7.68308 8.43385 7.7992 8.48805 7.92749C8.54226 8.05578 8.57019 8.19364 8.57019 8.33292C8.57019 8.47219 8.54226 8.61005 8.48805 8.73834C8.43385 8.86663 8.35447 8.98275 8.2546 9.07983C8.15474 9.17691 8.03642 9.25297 7.90665 9.30353C7.77687 9.35409 7.63828 9.3781 7.49906 9.37417C7.22801 9.3665 6.97062 9.25343 6.78161 9.059C6.5926 8.86456 6.48686 8.60408 6.48686 8.33292C6.48686 8.06175 6.5926 7.80127 6.78161 7.60684C6.97062 7.4124 7.22801 7.29933 7.49906 7.29167ZM12.4991 7.29167C12.6383 7.28773 12.7769 7.31175 12.9066 7.3623C13.0364 7.41286 13.1547 7.48892 13.2546 7.586C13.3545 7.68308 13.4338 7.7992 13.4881 7.92749C13.5423 8.05578 13.5702 8.19364 13.5702 8.33292C13.5702 8.47219 13.5423 8.61005 13.4881 8.73834C13.4338 8.86663 13.3545 8.98275 13.2546 9.07983C13.1547 9.17691 13.0364 9.25297 12.9066 9.30353C12.7769 9.35409 12.6383 9.3781 12.4991 9.37417C12.228 9.3665 11.9706 9.25343 11.7816 9.059C11.5926 8.86456 11.4869 8.60408 11.4869 8.33292C11.4869 8.06175 11.5926 7.80127 11.7816 7.60684C11.9706 7.4124 12.228 7.29933 12.4991 7.29167Z" fill="#8D8D8D"/>
</g>
</svg>
