<svg width="20" height="20" viewBox="0 0 20 20" fill="none" xmlns="http://www.w3.org/2000/svg">
<g id="ic_fluent_image_24_regular 1">
<path id="Vector" d="M14.7917 2.5C15.51 2.5 16.1988 2.78534 16.7067 3.29325C17.2147 3.80116 17.5 4.49004 17.5 5.20833V14.7917C17.5 15.51 17.2147 16.1988 16.7067 16.7067C16.1988 17.2147 15.51 17.5 14.7917 17.5H5.20833C4.49004 17.5 3.80116 17.2147 3.29325 16.7067C2.78534 16.1988 2.5 15.51 2.5 14.7917V5.20833C2.5 4.49004 2.78534 3.80116 3.29325 3.29325C3.80116 2.78534 4.49004 2.5 5.20833 2.5H14.7917ZM15.275 16.1675L10.4375 11.4292C10.332 11.3257 10.1932 11.263 10.0458 11.2522C9.89846 11.2414 9.75202 11.2831 9.6325 11.37L9.5625 11.4283L4.72333 16.1675C4.875 16.2208 5.03833 16.25 5.20833 16.25H14.7917C14.9608 16.25 15.1242 16.2208 15.275 16.1675ZM14.7917 3.75H5.20833C4.82156 3.75 4.45063 3.90365 4.17714 4.17714C3.90365 4.45063 3.75 4.82156 3.75 5.20833V14.7917C3.75 14.965 3.78 15.1317 3.83583 15.2867L8.68833 10.5358C9.02098 10.2102 9.46286 10.0199 9.92802 10.0021C10.3932 9.98419 10.8484 10.14 11.205 10.4392L11.3117 10.5358L16.1633 15.2875C16.2192 15.1325 16.25 14.9658 16.25 14.7917V5.20833C16.25 4.82156 16.0964 4.45063 15.8229 4.17714C15.5494 3.90365 15.1784 3.75 14.7917 3.75ZM12.71 5.41667C13.2077 5.41667 13.6851 5.61439 14.037 5.96633C14.3889 6.31827 14.5867 6.79561 14.5867 7.29333C14.5867 7.79106 14.3889 8.26839 14.037 8.62034C13.6851 8.97228 13.2077 9.17 12.71 9.17C12.2123 9.17 11.7349 8.97228 11.383 8.62034C11.0311 8.26839 10.8333 7.79106 10.8333 7.29333C10.8333 6.79561 11.0311 6.31827 11.383 5.96633C11.7349 5.61439 12.2123 5.41667 12.71 5.41667ZM12.71 6.66667C12.5438 6.66667 12.3844 6.73269 12.2669 6.85021C12.1494 6.96774 12.0833 7.12713 12.0833 7.29333C12.0833 7.45954 12.1494 7.61893 12.2669 7.73645C12.3844 7.85398 12.5438 7.92 12.71 7.92C12.8762 7.92 13.0356 7.85398 13.1531 7.73645C13.2706 7.61893 13.3367 7.45954 13.3367 7.29333C13.3367 7.12713 13.2706 6.96774 13.1531 6.85021C13.0356 6.73269 12.8762 6.66667 12.71 6.66667Z" fill="#8D8D8D"/>
</g>
</svg>
