<svg width="18" height="18" viewBox="0 0 18 18" fill="none" xmlns="http://www.w3.org/2000/svg">
<g id="ic_fluent_bookmark_24_regular 1">
<path id="Vector" d="M4.64295 16.3905C4.55886 16.451 4.4597 16.4871 4.3564 16.4948C4.2531 16.5025 4.14967 16.4816 4.05752 16.4343C3.96537 16.387 3.88807 16.3151 3.83415 16.2267C3.78024 16.1382 3.75179 16.0366 3.75195 15.933V4.6875C3.75195 4.04103 4.00876 3.42105 4.46588 2.96393C4.923 2.50681 5.54299 2.25 6.18945 2.25H11.8137C12.4599 2.2502 13.0796 2.50699 13.5365 2.96393C13.9935 3.42086 14.2503 4.04054 14.2505 4.68675V15.9338C14.2505 16.0373 14.2219 16.1388 14.168 16.2271C14.114 16.3155 14.0367 16.3872 13.9446 16.4345C13.8524 16.4817 13.7491 16.5026 13.6458 16.4948C13.5426 16.4871 13.4435 16.451 13.3595 16.3905L9.0012 13.2548L4.6422 16.3898L4.64295 16.3905ZM13.1255 4.68675C13.1255 4.33865 12.9872 4.00481 12.741 3.75867C12.4949 3.51253 12.1611 3.37425 11.813 3.37425H6.1902C5.84211 3.37425 5.50827 3.51253 5.26213 3.75867C5.01598 4.00481 4.8777 4.33865 4.8777 4.68675V14.8358L8.6742 12.1058C8.7699 12.0369 8.88481 11.9999 9.0027 11.9999C9.12059 11.9999 9.23551 12.0369 9.3312 12.1058L13.1262 14.8358V4.6875L13.1255 4.68675Z" fill="#767676"/>
</g>
</svg>
