<svg width="18" height="18" viewBox="0 0 18 18" fill="none" xmlns="http://www.w3.org/2000/svg">
<g id="ic_fluent_share_android_24_regular 1">
<path id="Vector" d="M12.7495 1.8735C13.187 1.87346 13.6176 1.98271 14.0022 2.19134C14.3868 2.39997 14.7131 2.70136 14.9516 3.06814C15.1902 3.43492 15.3333 3.85548 15.368 4.29162C15.4027 4.72775 15.3279 5.16565 15.1504 5.56555C14.9729 5.96544 14.6983 6.31466 14.3516 6.58149C14.0049 6.84832 13.597 7.02431 13.165 7.09348C12.733 7.16264 12.2905 7.12279 11.8778 6.97754C11.4651 6.83229 11.0952 6.58625 10.8018 6.26175L7.38326 8.21475C7.54337 8.72576 7.54337 9.2735 7.38326 9.7845L10.801 11.739C11.2356 11.2588 11.8322 10.9561 12.4763 10.889C13.1204 10.822 13.7666 10.9952 14.2908 11.3755C14.815 11.7558 15.1802 12.3163 15.3163 12.9495C15.4524 13.5826 15.3497 14.2437 15.0281 14.8058C14.7065 15.3679 14.1885 15.7914 13.5737 15.9949C12.9589 16.1984 12.2906 16.1676 11.6971 15.9083C11.1037 15.6491 10.6269 15.1798 10.3584 14.5905C10.0898 14.0012 10.0485 13.3334 10.2423 12.7155L6.82451 10.7603C6.46854 11.1539 6.00168 11.4304 5.48544 11.5534C4.9692 11.6765 4.4278 11.6402 3.93256 11.4495C3.43732 11.2588 3.01147 10.9225 2.71112 10.485C2.41077 10.0475 2.25 9.5292 2.25 8.9985C2.25 8.4678 2.41077 7.94955 2.71112 7.51203C3.01147 7.0745 3.43732 6.73822 3.93256 6.54749C4.4278 6.35676 4.9692 6.32053 5.48544 6.44357C6.00168 6.56661 6.46854 6.84315 6.82451 7.23675L10.2423 5.28375C10.1193 4.89048 10.0906 4.47379 10.1585 4.06736C10.2263 3.66094 10.3889 3.27619 10.633 2.94421C10.877 2.61222 11.1958 2.34232 11.5635 2.15632C11.9312 1.97032 12.3375 1.87344 12.7495 1.8735ZM12.7495 11.9985C12.3513 11.9985 11.9694 12.1567 11.6878 12.4383C11.4062 12.7199 11.248 13.1018 11.248 13.5C11.248 13.8982 11.4062 14.2801 11.6878 14.5617C11.9694 14.8433 12.3513 15.0015 12.7495 15.0015C13.1477 15.0015 13.5296 14.8433 13.8112 14.5617C14.0928 14.2801 14.251 13.8982 14.251 13.5C14.251 13.1018 14.0928 12.7199 13.8112 12.4383C13.5296 12.1567 13.1477 11.9985 12.7495 11.9985ZM4.87601 7.49851C4.47779 7.49851 4.09587 7.6567 3.81429 7.93828C3.5327 8.21987 3.37451 8.60178 3.37451 9C3.37451 9.39823 3.5327 9.78014 3.81429 10.0617C4.09587 10.3433 4.47779 10.5015 4.87601 10.5015C5.27423 10.5015 5.65614 10.3433 5.93773 10.0617C6.21932 9.78014 6.37751 9.39823 6.37751 9C6.37751 8.60178 6.21932 8.21987 5.93773 7.93828C5.65614 7.6567 5.27423 7.49851 4.87601 7.49851ZM12.7495 2.9985C12.3513 2.9985 11.9694 3.1567 11.6878 3.43828C11.4062 3.71987 11.248 4.10178 11.248 4.5C11.248 4.89823 11.4062 5.28014 11.6878 5.56173C11.9694 5.84331 12.3513 6.0015 12.7495 6.0015C13.1477 6.0015 13.5296 5.84331 13.8112 5.56173C14.0928 5.28014 14.251 4.89823 14.251 4.5C14.251 4.10178 14.0928 3.71987 13.8112 3.43828C13.5296 3.1567 13.1477 2.9985 12.7495 2.9985Z" fill="#767676"/>
</g>
</svg>
