<svg width="24" height="25" viewBox="0 0 24 25" fill="none" xmlns="http://www.w3.org/2000/svg">
<g id="ic_fluent_calendar_ltr_24_filled 1">
<path id="Vector" d="M21 9.14362V18.3936C21 19.2556 20.6576 20.0822 20.0481 20.6917C19.4386 21.3012 18.612 21.6436 17.75 21.6436H6.25C5.38805 21.6436 4.5614 21.3012 3.9519 20.6917C3.34241 20.0822 3 19.2556 3 18.3936V9.14362H21ZM7.25 15.6436C6.91848 15.6436 6.60054 15.7753 6.36612 16.0097C6.1317 16.2442 6 16.5621 6 16.8936C6 17.2251 6.1317 17.5431 6.36612 17.7775C6.60054 18.0119 6.91848 18.1436 7.25 18.1436C7.58152 18.1436 7.89946 18.0119 8.13388 17.7775C8.3683 17.5431 8.5 17.2251 8.5 16.8936C8.5 16.5621 8.3683 16.2442 8.13388 16.0097C7.89946 15.7753 7.58152 15.6436 7.25 15.6436ZM12 15.6436C11.6685 15.6436 11.3505 15.7753 11.1161 16.0097C10.8817 16.2442 10.75 16.5621 10.75 16.8936C10.75 17.2251 10.8817 17.5431 11.1161 17.7775C11.3505 18.0119 11.6685 18.1436 12 18.1436C12.3315 18.1436 12.6495 18.0119 12.8839 17.7775C13.1183 17.5431 13.25 17.2251 13.25 16.8936C13.25 16.5621 13.1183 16.2442 12.8839 16.0097C12.6495 15.7753 12.3315 15.6436 12 15.6436ZM7.25 11.1436C6.91848 11.1436 6.60054 11.2753 6.36612 11.5097C6.1317 11.7442 6 12.0621 6 12.3936C6 12.7251 6.1317 13.0431 6.36612 13.2775C6.60054 13.5119 6.91848 13.6436 7.25 13.6436C7.58152 13.6436 7.89946 13.5119 8.13388 13.2775C8.3683 13.0431 8.5 12.7251 8.5 12.3936C8.5 12.0621 8.3683 11.7442 8.13388 11.5097C7.89946 11.2753 7.58152 11.1436 7.25 11.1436ZM12 11.1436C11.6685 11.1436 11.3505 11.2753 11.1161 11.5097C10.8817 11.7442 10.75 12.0621 10.75 12.3936C10.75 12.7251 10.8817 13.0431 11.1161 13.2775C11.3505 13.5119 11.6685 13.6436 12 13.6436C12.3315 13.6436 12.6495 13.5119 12.8839 13.2775C13.1183 13.0431 13.25 12.7251 13.25 12.3936C13.25 12.0621 13.1183 11.7442 12.8839 11.5097C12.6495 11.2753 12.3315 11.1436 12 11.1436ZM16.75 11.1436C16.4185 11.1436 16.1005 11.2753 15.8661 11.5097C15.6317 11.7442 15.5 12.0621 15.5 12.3936C15.5 12.7251 15.6317 13.0431 15.8661 13.2775C16.1005 13.5119 16.4185 13.6436 16.75 13.6436C17.0815 13.6436 17.3995 13.5119 17.6339 13.2775C17.8683 13.0431 18 12.7251 18 12.3936C18 12.0621 17.8683 11.7442 17.6339 11.5097C17.3995 11.2753 17.0815 11.1436 16.75 11.1436ZM17.75 3.64362C18.612 3.64362 19.4386 3.98603 20.0481 4.59552C20.6576 5.20501 21 6.03166 21 6.89362V7.64362H3V6.89362C3 6.03166 3.34241 5.20501 3.9519 4.59552C4.5614 3.98603 5.38805 3.64362 6.25 3.64362H17.75Z" fill="#07304A"/>
</g>
</svg>
