<svg width="24" height="25" viewBox="0 0 24 25" fill="none" xmlns="http://www.w3.org/2000/svg">
<g id="ic_fluent_broad_activity_feed_24_filled 1">
<path id="Vector" d="M9.246 14.6446C10.213 14.6446 10.996 15.4286 10.996 16.3946V19.8946C10.996 20.3587 10.8116 20.8039 10.4834 21.1321C10.1552 21.4602 9.71013 21.6446 9.246 21.6446H3.75C3.28587 21.6446 2.84075 21.4602 2.51256 21.1321C2.18437 20.8039 2 20.3587 2 19.8946V16.3946C2 15.4286 2.784 14.6446 3.75 14.6446H9.246ZM20.25 14.6446C21.216 14.6446 22 15.4286 22 16.3946V19.8946C22 20.3587 21.8156 20.8039 21.4874 21.1321C21.1592 21.4602 20.7141 21.6446 20.25 21.6446H14.754C14.2899 21.6446 13.8448 21.4602 13.5166 21.1321C13.1884 20.8039 13.004 20.3587 13.004 19.8946V16.3946C13.004 15.4286 13.787 14.6446 14.754 14.6446H20.25ZM20.25 3.63962C21.216 3.63962 22 4.42362 22 5.38962V10.8926C22.0001 11.1225 21.955 11.3502 21.8671 11.5626C21.7792 11.7751 21.6503 11.9681 21.4878 12.1307C21.3253 12.2933 21.1323 12.4223 20.9199 12.5103C20.7075 12.5983 20.4799 12.6436 20.25 12.6436H3.75C3.28587 12.6436 2.84075 12.4592 2.51256 12.1311C2.18437 11.8029 2 11.3577 2 10.8936V5.38962C2.00002 4.95043 2.16517 4.5273 2.46268 4.20422C2.76019 3.88115 3.1683 3.68176 3.606 3.64562L3.75 3.63962H20.25Z" fill="white"/>
</g>
</svg>
