<svg width="24" height="25" viewBox="0 0 24 25" fill="none" xmlns="http://www.w3.org/2000/svg">
<g id="ic_fluent_people_community_24_filled 1">
<path id="Vector" d="M14.75 15.6436C15.716 15.6436 16.5 16.4276 16.5 17.3936L16.499 18.3556C16.616 20.5456 14.988 21.6526 12.067 21.6526C9.157 21.6526 7.5 20.5626 7.5 18.3936V17.3936C7.5 16.4276 8.284 15.6436 9.25 15.6436H14.75ZM3.75 10.6436H8.126C7.95152 11.3226 7.95823 12.0355 8.14546 12.7111C8.3327 13.3867 8.6939 14.0013 9.193 14.4936L9.355 14.6446L9.25 14.6436C8.64983 14.6434 8.06606 14.8395 7.58778 15.2021C7.10949 15.5646 6.76294 16.0737 6.601 16.6516L6.567 16.6526C3.657 16.6526 2 15.5626 2 13.3936V12.3936C2 11.4276 2.784 10.6436 3.75 10.6436ZM20.25 10.6436C21.216 10.6436 22 11.4276 22 12.3936L21.999 13.3556C22.116 15.5456 20.488 16.6526 17.567 16.6526L17.398 16.6506C17.2443 16.1059 16.9265 15.6218 16.488 15.2639C16.0495 14.9061 15.5115 14.692 14.947 14.6506L14.75 14.6436L14.645 14.6446C15.2001 14.157 15.6089 13.5249 15.8259 12.8187C16.0429 12.1124 16.0596 11.3598 15.874 10.6446L20.25 10.6436ZM12 8.64362C12.394 8.64362 12.7841 8.72121 13.1481 8.87198C13.512 9.02274 13.8427 9.24372 14.1213 9.52229C14.3999 9.80087 14.6209 10.1316 14.7716 10.4956C14.9224 10.8595 15 11.2497 15 11.6436C15 12.0376 14.9224 12.4277 14.7716 12.7917C14.6209 13.1556 14.3999 13.4864 14.1213 13.7649C13.8427 14.0435 13.512 14.2645 13.1481 14.4153C12.7841 14.566 12.394 14.6436 12 14.6436C11.2044 14.6436 10.4413 14.3275 9.87868 13.7649C9.31607 13.2023 9 12.4393 9 11.6436C9 10.848 9.31607 10.0849 9.87868 9.52229C10.4413 8.95969 11.2044 8.64362 12 8.64362ZM6.5 3.64362C7.29565 3.64362 8.05871 3.95969 8.62132 4.5223C9.18393 5.0849 9.5 5.84797 9.5 6.64362C9.5 7.43927 9.18393 8.20233 8.62132 8.76494C8.05871 9.32755 7.29565 9.64362 6.5 9.64362C5.70435 9.64362 4.94129 9.32755 4.37868 8.76494C3.81607 8.20233 3.5 7.43927 3.5 6.64362C3.5 5.84797 3.81607 5.0849 4.37868 4.5223C4.94129 3.95969 5.70435 3.64362 6.5 3.64362ZM17.5 3.64362C18.2956 3.64362 19.0587 3.95969 19.6213 4.5223C20.1839 5.0849 20.5 5.84797 20.5 6.64362C20.5 7.43927 20.1839 8.20233 19.6213 8.76494C19.0587 9.32755 18.2956 9.64362 17.5 9.64362C16.7044 9.64362 15.9413 9.32755 15.3787 8.76494C14.8161 8.20233 14.5 7.43927 14.5 6.64362C14.5 5.84797 14.8161 5.0849 15.3787 4.5223C15.9413 3.95969 16.7044 3.64362 17.5 3.64362Z" fill="white"/>
</g>
</svg>
