<svg width="24" height="25" viewBox="0 0 24 25" fill="none" xmlns="http://www.w3.org/2000/svg">
<g id="ic_fluent_home_24_filled (2) 1">
<path id="Vector" d="M10.55 3.17663C10.9558 2.83465 11.4693 2.64709 12 2.64709C12.5307 2.64709 13.0442 2.83465 13.45 3.17663L20.2 8.87163C20.708 9.29863 21 9.92763 21 10.5916V20.3936C21 20.8578 20.8156 21.3029 20.4874 21.6311C20.1592 21.9593 19.7141 22.1436 19.25 22.1436H16.25C15.7859 22.1436 15.3408 21.9593 15.0126 21.6311C14.6844 21.3029 14.5 20.8578 14.5 20.3936V15.3936C14.5 15.1947 14.421 15.004 14.2803 14.8633C14.1397 14.7226 13.9489 14.6436 13.75 14.6436H10.25C10.0511 14.6436 9.86032 14.7226 9.71967 14.8633C9.57902 15.004 9.5 15.1947 9.5 15.3936V20.3936C9.5 20.8578 9.31563 21.3029 8.98744 21.6311C8.65925 21.9593 8.21413 22.1436 7.75 22.1436H4.75C4.52019 22.1436 4.29262 22.0984 4.0803 22.0104C3.86798 21.9225 3.67507 21.7936 3.51256 21.6311C3.35006 21.4686 3.22116 21.2756 3.13321 21.0633C3.04527 20.851 3 20.6234 3 20.3936V10.5906C3 9.92763 3.292 9.29863 3.8 8.87063L10.55 3.17663Z" fill="#07304A"/>
</g>
</svg>
