<svg width="20" height="17" viewBox="0 0 20 17" fill="none" xmlns="http://www.w3.org/2000/svg">
<g id="mosque-solid 1" clip-path="url(#clip0_113_160)">
<path id="Vector" d="M12.5 0.643616C12.6562 0.643616 12.8062 0.718616 12.9 0.843616C13.9844 2.29049 15.3406 3.18424 17.0719 4.32799C17.2344 4.43424 17.4 4.54674 17.5719 4.65924C18.475 5.25924 19 6.27487 19 7.34987C19 8.24362 18.6469 9.05299 18.0688 9.64362H6.93125C6.35625 9.04987 6 8.24049 6 7.34987C6 6.27487 6.52187 5.25924 7.42812 4.65924C7.59687 4.54674 7.76562 4.43737 7.92812 4.32799C9.65938 3.18424 11.0156 2.29049 12.1 0.843616C12.1938 0.718616 12.3438 0.643616 12.5 0.643616ZM9 16.6436V14.3936C9 13.978 8.66562 13.6436 8.25 13.6436C7.83437 13.6436 7.5 13.978 7.5 14.3936V16.6436H6C5.44688 16.6436 5 16.1967 5 15.6436V11.6436C5 11.0905 5.44688 10.6436 6 10.6436H19C19.5531 10.6436 20 11.0905 20 11.6436V15.6436C20 16.1967 19.5531 16.6436 19 16.6436H17.5V14.3936C17.5 13.978 17.1656 13.6436 16.75 13.6436C16.3344 13.6436 16 13.978 16 14.3936V16.6436H14V14.8311C14 14.2374 13.7375 13.6749 13.2812 13.2936L12.5 12.6436L11.7188 13.2936C11.2625 13.6749 11 14.2374 11 14.8311V16.6436H9ZM2.2 0.806116C2.37812 0.671741 2.62188 0.671741 2.8 0.806116L3.3 1.18112C4.36875 1.98424 5 3.24362 5 4.58112V4.64362H0V4.58112C0 3.24362 0.63125 1.98424 1.7 1.18112L2.2 0.806116ZM0 5.64362H5V9.91237C4.40312 10.2592 4 10.903 4 11.6436V15.6436C4 15.9436 4.06563 16.2249 4.18125 16.4811C3.975 16.5874 3.74375 16.6436 3.5 16.6436H1.5C0.671875 16.6436 0 15.9717 0 15.1436V6.14362V5.64362Z" fill="white"/>
</g>
<defs>
<clipPath id="clip0_113_160">
<rect width="20" height="16" fill="white" transform="translate(0 0.643616)"/>
</clipPath>
</defs>
</svg>
