<svg width="24" height="25" viewBox="0 0 24 25" fill="none" xmlns="http://www.w3.org/2000/svg">
<path d="M7.99773 6.39361C7.99786 5.68369 8.19941 4.98838 8.57895 4.38843C8.95849 3.78848 9.50045 3.30853 10.1419 3.0043C10.7833 2.70008 11.4979 2.58408 12.2026 2.66977C12.9073 2.75546 13.5733 3.03933 14.1231 3.48841C14.673 3.93748 15.0841 4.53334 15.3088 5.20676C15.5335 5.88018 15.5626 6.60353 15.3926 7.29279C15.2226 7.98206 14.8605 8.60895 14.3484 9.10066C13.8364 9.59236 13.1953 9.9287 12.4997 10.0706V12.1436H15.7497C16.3465 12.1436 16.9188 12.3807 17.3407 12.8026C17.7627 13.2246 17.9997 13.7969 17.9997 14.3936V15.2176C18.9087 15.4058 19.7157 15.9241 20.2649 16.6725C20.8142 17.4208 21.0667 18.3461 20.9737 19.2697C20.8807 20.1932 20.4488 21.0496 19.7615 21.6735C19.0741 22.2973 18.18 22.6444 17.2517 22.6476C16.3211 22.649 15.4232 22.3045 14.7323 21.6809C14.0414 21.0574 13.607 20.1994 13.5132 19.2735C13.4195 18.3476 13.6732 17.4199 14.2251 16.6706C14.777 15.9212 15.5877 15.4038 16.4997 15.2186V14.3936C16.4997 14.1947 16.4207 14.0039 16.2801 13.8633C16.1394 13.7226 15.9486 13.6436 15.7497 13.6436H7.74973C7.55082 13.6436 7.36005 13.7226 7.2194 13.8633C7.07875 14.0039 6.99973 14.1947 6.99973 14.3936V15.2176C7.9087 15.4058 8.7157 15.9241 9.26493 16.6725C9.81416 17.4208 10.0667 18.3461 9.97368 19.2697C9.8807 20.1932 9.44884 21.0496 8.76147 21.6735C8.0741 22.2973 7.17997 22.6444 6.25173 22.6476C5.32109 22.649 4.42316 22.3045 3.73229 21.6809C3.04143 21.0574 2.60695 20.1994 2.51323 19.2735C2.4195 18.3476 2.67322 17.4199 3.22512 16.6706C3.77702 15.9212 4.5877 15.4038 5.49973 15.2186V14.3936C5.49973 13.7969 5.73678 13.2246 6.15874 12.8026C6.58069 12.3807 7.15299 12.1436 7.74973 12.1436H10.9997V10.0706C10.1523 9.89735 9.39078 9.4368 8.84379 8.76682C8.2968 8.09684 7.99794 7.25853 7.99773 6.39361Z" fill="#371E11"/>
</svg>
