<svg width="24" height="25" viewBox="0 0 24 25" fill="none" xmlns="http://www.w3.org/2000/svg">
<g id="ic_fluent_edit_settings_24_filled 1">
<path id="Vector" d="M13.94 5.64361L19.001 10.7036L18.039 11.6656C17.0978 11.5874 16.151 11.7152 15.2642 12.0401C14.3775 12.3651 13.5722 12.8793 12.9045 13.5471C12.2367 14.2149 11.7224 15.0201 11.3975 15.9069C11.0726 16.7936 10.9448 17.7405 11.023 18.6816L9.06298 20.6416C8.78585 20.9187 8.44114 21.1187 8.06298 21.2216L2.94798 22.6166C2.82057 22.6511 2.68631 22.6514 2.55876 22.6174C2.43122 22.5834 2.3149 22.5164 2.22156 22.423C2.12822 22.3297 2.06117 22.2134 2.02718 22.0858C1.99319 21.9583 1.99347 21.824 2.02798 21.6966L3.42198 16.5806C3.52492 16.2025 3.72485 15.8577 4.00198 15.5806L13.94 5.64361ZM21.031 3.61361C21.7017 4.28475 22.0785 5.19476 22.0785 6.14361C22.0785 7.09246 21.7017 8.00248 21.031 8.67361L20.061 9.64361L15 4.58361L15.97 3.61361C16.3022 3.28122 16.6967 3.01755 17.1309 2.83766C17.5651 2.65776 18.0305 2.56517 18.5005 2.56517C18.9705 2.56517 19.4358 2.65776 19.87 2.83766C20.3042 3.01755 20.6987 3.28122 21.031 3.61361ZM14.28 14.6176C14.3548 14.8762 14.3766 15.1473 14.3441 15.4145C14.3116 15.6817 14.2255 15.9396 14.0909 16.1728C13.9564 16.406 13.7761 16.6096 13.561 16.7714C13.3459 16.9332 13.1003 17.05 12.839 17.1146L12.255 17.2586C12.1614 17.8575 12.1634 18.4674 12.261 19.0656L12.801 19.1956C13.0646 19.2591 13.3125 19.3755 13.5297 19.5378C13.7469 19.7001 13.9288 19.9048 14.0644 20.1396C14.2 20.3743 14.2865 20.6342 14.3186 20.9034C14.3507 21.1726 14.3277 21.4456 14.251 21.7056L14.064 22.3376C14.504 22.7236 15.004 23.0366 15.548 23.2586L16.042 22.7406C16.2288 22.5441 16.4536 22.3876 16.7028 22.2807C16.952 22.1738 17.2203 22.1186 17.4915 22.1186C17.7626 22.1186 18.031 22.1738 18.2801 22.2807C18.5293 22.3876 18.7542 22.5441 18.941 22.7406L19.439 23.2656C19.9804 23.0455 20.4816 22.7369 20.922 22.3526L20.724 21.6666C20.6494 21.408 20.6277 21.137 20.6604 20.8698C20.693 20.6027 20.7792 20.3448 20.9138 20.1118C21.0485 19.8787 21.2288 19.6752 21.4439 19.5135C21.6591 19.3518 21.9047 19.2352 22.166 19.1706L22.749 19.0266C22.8427 18.4274 22.8407 17.8172 22.743 17.2186L22.203 17.0886C21.9394 17.0251 21.6915 16.9087 21.4743 16.7464C21.2571 16.5842 21.0752 16.3794 20.9395 16.1447C20.8039 15.9099 20.7174 15.65 20.6854 15.3808C20.6533 15.1116 20.6763 14.8387 20.753 14.5786L20.94 13.9486C20.5 13.5607 19.9985 13.2487 19.456 13.0256L18.963 13.5446C18.7761 13.7413 18.5512 13.8979 18.302 14.0049C18.0527 14.1119 17.7843 14.1671 17.513 14.1671C17.2417 14.1671 16.9733 14.1119 16.724 14.0049C16.4747 13.8979 16.2498 13.7413 16.063 13.5446L15.565 13.0196C15.021 13.2396 14.521 13.5496 14.082 13.9316L14.28 14.6176ZM17.501 19.6436C16.701 19.6436 16.051 18.9716 16.051 18.1436C16.051 17.3146 16.701 16.6436 17.501 16.6436C18.301 16.6436 18.951 17.3146 18.951 18.1436C18.951 18.9716 18.301 19.6436 17.501 19.6436Z" fill="#07304A"/>
</g>
</svg>
