<svg width="24" height="25" viewBox="0 0 24 25" fill="none" xmlns="http://www.w3.org/2000/svg">
<g id="ic_fluent_edit_settings_24_filled 1">
<path id="Vector" d="M13.94 5.64363L19.001 10.7036L18.039 11.6656C17.0979 11.5874 16.151 11.7152 15.2643 12.0401C14.3776 12.3651 13.5723 12.8793 12.9045 13.5471C12.2367 14.2149 11.7225 15.0202 11.3976 15.9069C11.0726 16.7936 10.9448 17.7405 11.023 18.6816L9.06304 20.6416C8.78591 20.9188 8.4412 21.1187 8.06304 21.2216L2.94804 22.6166C2.82063 22.6511 2.68637 22.6514 2.55883 22.6174C2.43128 22.5834 2.31496 22.5164 2.22162 22.423C2.12829 22.3297 2.06124 22.2134 2.02724 22.0858C1.99325 21.9583 1.99353 21.824 2.02804 21.6966L3.42204 16.5806C3.52498 16.2025 3.72491 15.8578 4.00204 15.5806L13.94 5.64363ZM21.031 3.61363C21.7018 4.28476 22.0786 5.19478 22.0786 6.14363C22.0786 7.09248 21.7018 8.0025 21.031 8.67363L20.061 9.64363L15 4.58363L15.97 3.61363C16.3023 3.28124 16.6968 3.01757 17.131 2.83767C17.5652 2.65778 18.0306 2.56519 18.5005 2.56519C18.9705 2.56519 19.4359 2.65778 19.8701 2.83767C20.3043 3.01757 20.6988 3.28124 21.031 3.61363ZM14.28 14.6176C14.3548 14.8762 14.3766 15.1473 14.3441 15.4145C14.3116 15.6817 14.2255 15.9397 14.091 16.1728C13.9564 16.406 13.7762 16.6096 13.5611 16.7714C13.3459 16.9332 13.1004 17.05 12.839 17.1146L12.255 17.2586C12.1614 17.8575 12.1635 18.4674 12.261 19.0656L12.801 19.1956C13.0646 19.2591 13.3125 19.3755 13.5297 19.5378C13.7469 19.7001 13.9289 19.9048 14.0645 20.1396C14.2001 20.3743 14.2866 20.6342 14.3186 20.9034C14.3507 21.1727 14.3277 21.4456 14.251 21.7056L14.064 22.3376C14.504 22.7236 15.004 23.0366 15.548 23.2586L16.042 22.7406C16.2289 22.5441 16.4537 22.3876 16.7029 22.2807C16.9521 22.1738 17.2204 22.1187 17.4915 22.1187C17.7627 22.1187 18.031 22.1738 18.2802 22.2807C18.5294 22.3876 18.7542 22.5441 18.941 22.7406L19.439 23.2656C19.9805 23.0455 20.4817 22.7369 20.922 22.3526L20.724 21.6666C20.6494 21.408 20.6278 21.137 20.6604 20.8698C20.693 20.6027 20.7793 20.3448 20.9139 20.1118C21.0485 19.8787 21.2288 19.6752 21.444 19.5135C21.6592 19.3518 21.9047 19.2352 22.166 19.1706L22.749 19.0266C22.8428 18.4274 22.8407 17.8172 22.743 17.2186L22.203 17.0886C21.9395 17.0251 21.6915 16.9087 21.4743 16.7465C21.2572 16.5842 21.0752 16.3794 20.9396 16.1447C20.804 15.9099 20.7175 15.65 20.6854 15.3808C20.6534 15.1116 20.6764 14.8387 20.753 14.5786L20.94 13.9486C20.5001 13.5607 19.9985 13.2487 19.456 13.0256L18.963 13.5446C18.7762 13.7413 18.5513 13.8979 18.302 14.0049C18.0528 14.1119 17.7843 14.1671 17.513 14.1671C17.2418 14.1671 16.9733 14.1119 16.7241 14.0049C16.4748 13.8979 16.2499 13.7413 16.063 13.5446L15.565 13.0196C15.021 13.2396 14.521 13.5496 14.082 13.9316L14.28 14.6176ZM17.501 19.6436C16.701 19.6436 16.051 18.9716 16.051 18.1436C16.051 17.3146 16.701 16.6436 17.501 16.6436C18.301 16.6436 18.951 17.3146 18.951 18.1436C18.951 18.9716 18.301 19.6436 17.501 19.6436Z" fill="white"/>
</g>
</svg>
