<svg width="49" height="57" viewBox="0 0 49 57" fill="none" xmlns="http://www.w3.org/2000/svg">
<path id="Union" fill-rule="evenodd" clip-rule="evenodd" d="M25.4334 0.510714C24.7047 0.110318 23.8203 0.117532 23.0982 0.529762L10.8482 7.52356C9.70232 8.17778 9.30373 9.63707 9.95796 10.783C10.6122 11.9289 12.0715 12.3275 13.2174 11.6732L24.3051 5.343L35.8601 11.6923C37.0165 12.3277 38.4691 11.9054 39.1045 10.749C39.74 9.59255 39.3176 8.13995 38.1612 7.50451L25.4334 0.510714ZM1.21384 12.9048C1.96388 12.481 2.884 12.4938 3.62196 12.9383L24.459 25.4898L45.3816 12.9362C46.1197 12.4934 47.0389 12.4818 47.788 12.9059C48.537 13.3299 49 14.1242 49 14.9849V41.1356C49 42.4551 47.9303 43.5248 46.6108 43.5248C45.2913 43.5248 44.2216 42.4551 44.2216 41.1356V19.2047L26.8457 29.6302V54.2544C26.8457 55.5739 25.7761 56.6436 24.4566 56.6436C23.1371 56.6436 22.0674 55.5739 22.0674 54.2544V29.6275L4.77837 19.2132V41.1356C4.77837 42.4551 3.70869 43.5248 2.38918 43.5248C1.06967 43.5248 0 42.4551 0 41.1356V14.9849C0 14.1234 0.463797 13.3286 1.21384 12.9048Z" fill="#0A4B70"/>
</svg>
