<svg width="24" height="25" viewBox="0 0 24 25" fill="none" xmlns="http://www.w3.org/2000/svg">
<g id="ic_fluent_people_settings_24_filled 1">
<path id="Vector" d="M3.5 13.6436H12.809C11.646 14.8528 10.9976 16.466 11 18.1436C11 19.2306 11.267 20.2556 11.739 21.1566C10.689 21.5066 9.531 21.6436 8.5 21.6436C5.778 21.6436 2.165 20.6876 2.005 17.3736L2 17.1436V15.1436C2.00002 14.7707 2.13892 14.4112 2.38962 14.1352C2.64032 13.8592 2.98484 13.6864 3.356 13.6506L3.5 13.6436ZM21 8.14362C21 9.07187 20.6313 9.96211 19.9749 10.6185C19.3185 11.2749 18.4283 11.6436 17.5 11.6436C16.5717 11.6436 15.6815 11.2749 15.0251 10.6185C14.3687 9.96211 14 9.07187 14 8.14362C14 7.21536 14.3687 6.32512 15.0251 5.66874C15.6815 5.01236 16.5717 4.64362 17.5 4.64362C18.4283 4.64362 19.3185 5.01236 19.9749 5.66874C20.6313 6.32512 21 7.21536 21 8.14362ZM8.5 2.64362C9.09095 2.64362 9.67611 2.76001 10.2221 2.98616C10.768 3.2123 11.2641 3.54377 11.682 3.96164C12.0998 4.3795 12.4313 4.87558 12.6575 5.42154C12.8836 5.96751 13 6.55267 13 7.14362C13 7.73456 12.8836 8.31973 12.6575 8.86569C12.4313 9.41166 12.0998 9.90773 11.682 10.3256C11.2641 10.7435 10.768 11.0749 10.2221 11.3011C9.67611 11.5272 9.09095 11.6436 8.5 11.6436C7.30653 11.6436 6.16193 11.1695 5.31802 10.3256C4.47411 9.48168 4 8.33709 4 7.14362C4 5.95014 4.47411 4.80555 5.31802 3.96164C6.16193 3.11772 7.30653 2.64362 8.5 2.64362ZM14.277 14.6186C14.3518 14.8772 14.3736 15.1483 14.3411 15.4155C14.3086 15.6827 14.2225 15.9406 14.0879 16.1738C13.9534 16.407 13.7732 16.6106 13.558 16.7724C13.3429 16.9342 13.0973 17.051 12.836 17.1156L12.252 17.2596C12.1584 17.8585 12.1604 18.4684 12.258 19.0666L12.798 19.1966C13.0616 19.2601 13.3095 19.3765 13.5267 19.5388C13.7439 19.7011 13.9258 19.9058 14.0614 20.1406C14.1971 20.3753 14.2835 20.6352 14.3156 20.9044C14.3477 21.1736 14.3247 21.4466 14.248 21.7066L14.061 22.3386C14.501 22.7246 15.001 23.0376 15.546 23.2596L16.039 22.7416C16.2258 22.5451 16.4507 22.3886 16.6998 22.2817C16.949 22.1748 17.2173 22.1196 17.4885 22.1196C17.7597 22.1196 18.028 22.1748 18.2772 22.2817C18.5263 22.3886 18.7512 22.5451 18.938 22.7416L19.437 23.2666C19.9781 23.0463 20.4789 22.7378 20.919 22.3536L20.721 21.6676C20.6464 21.409 20.6248 21.138 20.6574 20.8708C20.69 20.6037 20.7762 20.3458 20.9109 20.1128C21.0455 19.8797 21.2258 19.6762 21.441 19.5145C21.6561 19.3528 21.9017 19.2362 22.163 19.1716L22.746 19.0276C22.8397 18.4284 22.8377 17.8182 22.74 17.2196L22.2 17.0896C21.9365 17.026 21.6887 16.9095 21.4716 16.7472C21.2545 16.5849 21.0727 16.3801 20.9372 16.1454C20.8017 15.9106 20.7153 15.6508 20.6833 15.3816C20.6513 15.1125 20.6743 14.8396 20.751 14.5796L20.937 13.9496C20.4971 13.5616 19.9955 13.2497 19.453 13.0266L18.96 13.5456C18.7732 13.7423 18.5483 13.8989 18.299 14.0059C18.0497 14.1129 17.7813 14.1681 17.51 14.1681C17.2387 14.1681 16.9703 14.1129 16.721 14.0059C16.4717 13.8989 16.2468 13.7423 16.06 13.5456L15.562 13.0206C15.018 13.2406 14.518 13.5506 14.079 13.9326L14.277 14.6186ZM17.5 19.6436C16.7 19.6436 16.05 18.9716 16.05 18.1436C16.05 17.3146 16.7 16.6436 17.5 16.6436C18.3 16.6436 18.95 17.3146 18.95 18.1436C18.95 18.9716 18.3 19.6436 17.5 19.6436Z" fill="#07304A"/>
</g>
</svg>
