<svg width="32" height="32" viewBox="0 0 32 32" fill="none" xmlns="http://www.w3.org/2000/svg">
<g id="Group 619">
<circle id="Ellipse 2316" cx="16" cy="16" r="15.5" fill="#0087CB" stroke="white"/>
<g id="add_a_photo">
<mask id="mask0_89_2451" style="mask-type:alpha" maskUnits="userSpaceOnUse" x="7" y="7" width="18" height="18">
<rect id="Bounding box" x="7" y="7" width="18" height="18" fill="#D9D9D9"/>
</mask>
<g mask="url(#mask0_89_2451)">
<path id="add_a_photo_2" d="M9.48081 22.375C9.10194 22.375 8.78125 22.2438 8.51875 21.9813C8.25625 21.7188 8.125 21.3981 8.125 21.0192V12.4808C8.125 12.1019 8.25625 11.7812 8.51875 11.5188C8.78125 11.2563 9.10194 11.125 9.48081 11.125H11.7711L13.1586 9.625H17.3558V10.75H13.6491L12.2731 12.25H9.48081C9.41344 12.25 9.35813 12.2716 9.31488 12.3149C9.27163 12.3581 9.25 12.4134 9.25 12.4808V21.0192C9.25 21.0866 9.27163 21.1419 9.31488 21.1851C9.35813 21.2284 9.41344 21.25 9.48081 21.25H21.0192C21.0866 21.25 21.1419 21.2284 21.1851 21.1851C21.2284 21.1419 21.25 21.0866 21.25 21.0192V14.6442H22.375V21.0192C22.375 21.3981 22.2438 21.7188 21.9813 21.9813C21.7188 22.2438 21.3981 22.375 21.0192 22.375H9.48081ZM21.25 12.25V10.75H19.75V9.625H21.25V8.125H22.375V9.625H23.875V10.75H22.375V12.25H21.25ZM15.25 19.8364C16.1106 19.8364 16.8402 19.5372 17.4387 18.9387C18.0372 18.3402 18.3364 17.6106 18.3364 16.75C18.3364 15.8894 18.0372 15.1598 17.4387 14.5613C16.8402 13.9628 16.1106 13.6636 15.25 13.6636C14.3894 13.6636 13.6598 13.9628 13.0613 14.5613C12.4628 15.1598 12.1636 15.8894 12.1636 16.75C12.1636 17.6106 12.4628 18.3402 13.0613 18.9387C13.6598 19.5372 14.3894 19.8364 15.25 19.8364ZM15.25 18.7116C14.6961 18.7116 14.2308 18.5231 13.8539 18.1461C13.4769 17.7692 13.2884 17.3039 13.2884 16.75C13.2884 16.1961 13.4769 15.7307 13.8539 15.3539C14.2308 14.9769 14.6961 14.7884 15.25 14.7884C15.8039 14.7884 16.2693 14.9769 16.6461 15.3539C17.0231 15.7307 17.2116 16.1961 17.2116 16.75C17.2116 17.3039 17.0231 17.7692 16.6461 18.1461C16.2693 18.5231 15.8039 18.7116 15.25 18.7116Z" fill="white"/>
</g>
</g>
</g>
</svg>
