<svg width="20" height="20" viewBox="0 0 20 20" fill="none" xmlns="http://www.w3.org/2000/svg">
<g id="ic_fluent_settings_24_filled 1">
<path id="Vector" d="M10.0101 1.875C10.6217 1.88167 11.2309 1.9525 11.8284 2.08583C11.9555 2.11421 12.0706 2.18159 12.1575 2.27855C12.2445 2.37552 12.299 2.49722 12.3134 2.62667L12.4551 3.89917C12.4751 4.07857 12.5369 4.25077 12.6356 4.40192C12.7343 4.55307 12.8671 4.67894 13.0233 4.76941C13.1795 4.85987 13.3548 4.91241 13.535 4.92279C13.7152 4.93317 13.8953 4.9011 14.0609 4.82917L15.2284 4.31667C15.3469 4.26446 15.4788 4.25037 15.6057 4.27634C15.7325 4.30232 15.8482 4.36708 15.9367 4.46167C16.78 5.36257 17.408 6.44301 17.7734 7.62167C17.8117 7.74553 17.8106 7.87825 17.7701 8.00143C17.7296 8.1246 17.6519 8.23215 17.5476 8.30917L16.5126 9.0725C16.367 9.17941 16.2487 9.31908 16.1671 9.48021C16.0855 9.64134 16.043 9.8194 16.043 10C16.043 10.1806 16.0855 10.3587 16.1671 10.5198C16.2487 10.6809 16.367 10.8206 16.5126 10.9275L17.5484 11.69C17.653 11.767 17.731 11.8746 17.7717 11.998C17.8123 12.1213 17.8135 12.2543 17.7751 12.3783C17.4095 13.5569 16.7816 14.6373 15.9384 15.5383C15.8501 15.6327 15.7348 15.6974 15.6082 15.7235C15.4817 15.7496 15.3501 15.7359 15.2317 15.6842L14.0592 15.17C13.8939 15.0975 13.7138 15.065 13.5335 15.075C13.3533 15.085 13.1779 15.1373 13.0216 15.2277C12.8654 15.3181 12.7326 15.444 12.634 15.5953C12.5354 15.7465 12.4738 15.9189 12.4542 16.0983L12.3134 17.37C12.2992 17.498 12.2458 17.6186 12.1604 17.7151C12.0751 17.8116 11.9621 17.8794 11.8367 17.9092C10.6297 18.1963 9.3721 18.1963 8.16506 17.9092C8.03973 17.8794 7.92666 17.8116 7.84133 17.7151C7.75601 17.6186 7.70259 17.498 7.68839 17.37L7.54839 16.1C7.52798 15.921 7.46584 15.7493 7.36699 15.5986C7.26813 15.448 7.13531 15.3226 6.97921 15.2327C6.8231 15.1427 6.64806 15.0906 6.46816 15.0806C6.28826 15.0706 6.10852 15.1029 5.94339 15.175L4.77172 15.6883C4.65321 15.7402 4.5215 15.7541 4.39477 15.728C4.26805 15.7019 4.15255 15.6371 4.06422 15.5425C3.22065 14.6405 2.59267 13.5589 2.22756 12.3792C2.18914 12.2551 2.19032 12.1222 2.23094 11.9988C2.27157 11.8754 2.34961 11.7678 2.45422 11.6908L3.49006 10.9275C3.63576 10.8207 3.75426 10.6811 3.83593 10.5199C3.91761 10.3588 3.96017 10.1807 3.96017 10C3.96017 9.81934 3.91761 9.64122 3.83593 9.48008C3.75426 9.31894 3.63576 9.17931 3.49006 9.0725L2.45422 8.31083C2.34976 8.23376 2.27188 8.12607 2.23141 8.00272C2.19094 7.87937 2.18988 7.74648 2.22839 7.6225C2.59383 6.44385 3.2218 5.36343 4.06506 4.4625C4.15355 4.36791 4.26923 4.30315 4.39613 4.27718C4.52302 4.2512 4.65485 4.26529 4.77339 4.3175L5.94006 4.83C6.10591 4.90189 6.28631 4.93388 6.46676 4.92341C6.64722 4.91293 6.8227 4.86027 6.97912 4.76966C7.13553 4.67906 7.26851 4.55303 7.36738 4.4017C7.46625 4.25037 7.52824 4.07797 7.54839 3.89833L7.69006 2.62667C7.70436 2.49696 7.7589 2.37499 7.84602 2.27785C7.93315 2.1807 8.0485 2.11327 8.17589 2.085C8.77339 1.9525 9.38422 1.8825 10.0101 1.875ZM10.0001 7.5C9.33702 7.5 8.70113 7.76339 8.23229 8.23223C7.76345 8.70107 7.50006 9.33696 7.50006 10C7.50006 10.663 7.76345 11.2989 8.23229 11.7678C8.70113 12.2366 9.33702 12.5 10.0001 12.5C10.6631 12.5 11.299 12.2366 11.7678 11.7678C12.2367 11.2989 12.5001 10.663 12.5001 10C12.5001 9.33696 12.2367 8.70107 11.7678 8.23223C11.299 7.76339 10.6631 7.5 10.0001 7.5Z" fill="#A4722A"/>
</g>
</svg>
