<svg width="24" height="24" viewBox="0 0 24 24" fill="none" xmlns="http://www.w3.org/2000/svg">
<g id="ic_fluent_people_24_filled 1">
<path id="Vector" d="M3.5 14L13.5 14.001C13.8729 14.001 14.2324 14.1399 14.5084 14.3906C14.7844 14.6413 14.9572 14.9858 14.993 15.357L15 15.5V17.5C14.999 21 11.284 22 8.5 22C5.778 22 2.165 21.044 2.005 17.73L2 17.5V15.5C2.00002 15.1271 2.13892 14.7676 2.38962 14.4916C2.64032 14.2156 2.98484 14.0428 3.356 14.007L3.5 14ZM15.488 14H20.5C20.8727 14 21.2321 14.1388 21.5081 14.3892C21.7841 14.6397 21.957 14.984 21.993 15.355L22 15.5V17C21.999 20.062 19.142 21 17 21C16.2745 21.0017 15.5529 20.8931 14.86 20.678C15.513 19.928 15.936 18.975 15.993 17.78L16 17.5V15.5C16 15.006 15.85 14.549 15.601 14.162L15.488 14ZM8.5 3C9.69347 3 10.8381 3.47411 11.682 4.31802C12.5259 5.16193 13 6.30653 13 7.5C13 8.69347 12.5259 9.83807 11.682 10.682C10.8381 11.5259 9.69347 12 8.5 12C7.30653 12 6.16193 11.5259 5.31802 10.682C4.47411 9.83807 4 8.69347 4 7.5C4 6.30653 4.47411 5.16193 5.31802 4.31802C6.16193 3.47411 7.30653 3 8.5 3ZM17.5 5C18.4283 5 19.3185 5.36875 19.9749 6.02513C20.6313 6.6815 21 7.57174 21 8.5C21 9.42826 20.6313 10.3185 19.9749 10.9749C19.3185 11.6313 18.4283 12 17.5 12C16.5717 12 15.6815 11.6313 15.0251 10.9749C14.3687 10.3185 14 9.42826 14 8.5C14 7.57174 14.3687 6.6815 15.0251 6.02513C15.6815 5.36875 16.5717 5 17.5 5Z" fill="white"/>
</g>
</svg>
