<svg width="212" height="200" viewBox="0 0 212 200" fill="none" xmlns="http://www.w3.org/2000/svg">
<g id="Character" clip-path="url(#clip0_133_10007)">
<g id="Group">
<path id="Vector" d="M11.9527 191.397H116.835C117.262 190.726 117.69 190.055 118.122 189.398C129.404 172.326 147.469 160.16 167.199 154.449C176.038 151.893 185.612 150.373 192.713 144.549C200.023 138.557 203.379 129.002 204.829 119.703C206.587 108.44 205.639 95.8146 197.947 87.36C188.914 77.4295 173.778 76.319 162.009 69.809C141.754 58.6052 133.903 33.0931 115.475 19.1155C103.84 10.2907 88.1182 6.87034 74.06 8.80509C54.1024 11.5493 35.3218 24.8458 29.6856 44.3216C28.1214 49.7261 27.4957 55.5896 27.9774 61.7985C28.8811 73.4218 31.3938 85.1932 29.0202 96.6093C26.4032 109.19 18.1699 119.816 13.2488 131.696C7.121 146.488 6.27682 163.087 8.89876 178.871C9.59894 183.091 10.5772 187.325 11.9527 191.397Z" fill="#E8D8A0"/>
<path id="Vector_2" opacity="0.7" d="M11.9527 191.397H116.835C117.262 190.726 117.69 190.055 118.122 189.398C129.404 172.326 147.469 160.16 167.199 154.449C176.038 151.893 185.612 150.373 192.713 144.549C200.023 138.557 203.379 129.002 204.829 119.703C206.587 108.44 205.639 95.8146 197.947 87.36C188.914 77.4295 173.778 76.319 162.009 69.809C141.754 58.6052 133.903 33.0931 115.475 19.1155C103.84 10.2907 88.1182 6.87034 74.06 8.80509C54.1024 11.5493 35.3218 24.8458 29.6856 44.3216C28.1214 49.7261 27.4957 55.5896 27.9774 61.7985C28.8811 73.4218 31.3938 85.1932 29.0202 96.6093C26.4032 109.19 18.1699 119.816 13.2488 131.696C7.121 146.488 6.27682 163.087 8.89876 178.871C9.59894 183.091 10.5772 187.325 11.9527 191.397Z" fill="white"/>
</g>
<g id="Group_2">
<path id="Vector_3" d="M120.336 31.119V23.3849H198.205V100.785H127.095" stroke="#2F2B53" stroke-linecap="round" stroke-linejoin="round"/>
<path id="Vector_4" d="M120.336 100.785V35.0427" stroke="#2F2B53" stroke-linecap="round" stroke-linejoin="round"/>
<g id="Group_3">
<path id="Vector_5" d="M124.056 51.6363V27.136H158.131V61.004H124.056V53.6599" stroke="#2F2B53" stroke-linecap="round" stroke-linejoin="round"/>
<path id="Vector_6" d="M194.486 48.7539V61.004H160.41V27.136H194.486V45.1706" stroke="#2F2B53" stroke-linecap="round" stroke-linejoin="round"/>
<path id="Vector_7" d="M158.131 63.1658V97.0338H124.056V63.1658H155.613" stroke="#2F2B53" stroke-linecap="round" stroke-linejoin="round"/>
<path id="Vector_8" d="M169.652 97.0338H160.41V63.1658H194.486V97.0338H174.518" stroke="#2F2B53" stroke-linecap="round" stroke-linejoin="round"/>
</g>
</g>
<path id="Vector_9" d="M38.4403 20.3544V22.2842" stroke="#2F2B53" stroke-linecap="round" stroke-linejoin="round"/>
<path id="Vector_10" d="M38.5396 7.86731L38.4403 19.2192" stroke="#2F2B53" stroke-linecap="round" stroke-linejoin="round"/>
<path id="Vector_11" d="M38.4403 0.246826L38.5347 6.56932" stroke="#2F2B53" stroke-linecap="round" stroke-linejoin="round"/>
<path id="Vector_12" d="M45.3179 33.3744H47.488C43.858 19.9003 33.0276 19.9003 29.3976 33.3744H39.0312" stroke="#2F2B53" stroke-linecap="round" stroke-linejoin="round"/>
<path id="Vector_13" d="M42.0752 33.3745H43.4805" stroke="#2F2B53" stroke-linecap="round" stroke-linejoin="round"/>
<path id="Vector_14" d="M38.4403 35.8669V39.4749" stroke="#2F2B53" stroke-linecap="round" stroke-linejoin="round"/>
<path id="Vector_15" d="M42.7804 35.8669L43.9374 38.4038" stroke="#2F2B53" stroke-linecap="round" stroke-linejoin="round"/>
<path id="Vector_16" d="M34.0206 35.8669L32.8438 38.4038" stroke="#2F2B53" stroke-linecap="round" stroke-linejoin="round"/>
<path id="Vector_17" d="M0.248291 191.585H211.752" stroke="#2F2B53" stroke-linecap="round" stroke-linejoin="round"/>
<g id="Group_4">
<path id="Vector_18" d="M102.246 100.469V159.958L94.092 168.062H51.0931V100.469H102.246Z" fill="white" stroke="#2F2B53" stroke-linecap="round" stroke-linejoin="round"/>
<path id="Vector_19" d="M102.246 100.469H51.0931V106.229H102.246V100.469Z" fill="#E8D8A0" stroke="#2F2B53" stroke-linecap="round" stroke-linejoin="round"/>
<path id="Vector_20" d="M102.281 159.923L94.092 168.062V159.923H102.281Z" fill="#CCC6C1" stroke="#2F2B53" stroke-linecap="round" stroke-linejoin="round"/>
<g id="Group_5">
<path id="Vector_21" opacity="0.3" d="M76.667 104.649L77.2331 106.554C77.2331 106.554 75.793 107.517 76.667 108.213L77.541 108.909C77.541 108.909 76.9501 110.947 77.9333 111.485C78.9165 112.023 82.1592 111.327 82.9438 110.118C83.7284 108.909 81.022 107.68 81.022 107.68C81.022 107.68 81.8165 106.688 81.3746 106.234C80.9326 105.775 79.3634 105.972 79.3634 105.972L78.2809 104.166L76.667 104.654V104.649Z" fill="black"/>
<path id="Vector_22" d="M77.2332 103.47C79.2462 103.47 80.878 101.949 80.878 100.074C80.878 98.1986 79.2462 96.6783 77.2332 96.6783C75.2201 96.6783 73.5883 98.1986 73.5883 100.074C73.5883 101.949 75.2201 103.47 77.2332 103.47Z" fill="#2F2B53"/>
<path id="Vector_23" d="M80.595 102.932C80.595 104.294 79.0904 105.395 77.2332 105.395C75.376 105.395 73.8713 104.294 73.8713 102.932C73.8713 101.57 75.376 100.469 77.2332 100.469C79.0904 100.469 80.595 101.57 80.595 102.932Z" fill="#2F2B53"/>
<path id="Vector_24" d="M79.2443 102.315C79.9246 101.821 80.1977 101.209 80.1977 101.209" stroke="white" stroke-linecap="round" stroke-linejoin="round"/>
<path id="Vector_25" d="M74.353 101.352C74.353 101.352 75.2618 102.927 77.2332 102.927" stroke="white" stroke-linecap="round" stroke-linejoin="round"/>
</g>
<path id="Vector_26" d="M99.2813 114.516H54.0627V141.854H99.2813V114.516Z" fill="#2F2B53" stroke="#2F2B53" stroke-linecap="round" stroke-linejoin="round"/>
<path id="Vector_27" d="M70.9514 123.365V134.747L83.5199 129.056L70.9514 123.365Z" fill="#E8D8A0" stroke="#2F2B53" stroke-linecap="round" stroke-linejoin="round"/>
<path id="Vector_28" d="M70.3804 110.31H54.4203C54.2316 110.31 54.0776 110.463 54.0776 110.651C54.0776 110.839 54.2316 110.992 54.4203 110.992H70.3804C70.5691 110.992 70.723 110.839 70.723 110.651C70.723 110.463 70.5691 110.31 70.3804 110.31Z" fill="#2F2B53"/>
<g id="Group_6">
<path id="Vector_29" d="M98.6854 151.276H54.4203C54.2316 151.276 54.0776 151.429 54.0776 151.616C54.0776 151.804 54.2316 151.957 54.4203 151.957H98.6854C98.8741 151.957 99.0281 151.804 99.0281 151.616C99.0281 151.429 98.8741 151.276 98.6854 151.276Z" fill="#2F2B53"/>
<path id="Vector_30" d="M98.6854 154.237H54.4203C54.2316 154.237 54.0776 154.39 54.0776 154.578C54.0776 154.765 54.2316 154.918 54.4203 154.918H98.6854C98.8741 154.918 99.0281 154.765 99.0281 154.578C99.0281 154.39 98.8741 154.237 98.6854 154.237Z" fill="#2F2B53"/>
<path id="Vector_31" d="M98.6854 157.198H54.4203C54.2316 157.198 54.0776 157.351 54.0776 157.539C54.0776 157.727 54.2316 157.88 54.4203 157.88H98.6854C98.8741 157.88 99.0281 157.727 99.0281 157.539C99.0281 157.351 98.8741 157.198 98.6854 157.198Z" fill="#2F2B53"/>
<path id="Vector_32" d="M88.7538 160.16H54.4203C54.2316 160.16 54.0776 160.313 54.0776 160.5C54.0776 160.688 54.2316 160.841 54.4203 160.841H88.7538C88.9425 160.841 89.0965 160.688 89.0965 160.5C89.0965 160.313 88.9425 160.16 88.7538 160.16Z" fill="#2F2B53"/>
<path id="Vector_33" d="M98.6854 148.314H54.4203C54.2316 148.314 54.0776 148.467 54.0776 148.655C54.0776 148.843 54.2316 148.996 54.4203 148.996H98.6854C98.8741 148.996 99.0281 148.843 99.0281 148.655C99.0281 148.467 98.8741 148.314 98.6854 148.314Z" fill="#2F2B53"/>
</g>
<path id="Vector_34" d="M70.3804 144.86H54.4203C54.2316 144.86 54.0776 145.013 54.0776 145.2C54.0776 145.388 54.2316 145.541 54.4203 145.541H70.3804C70.5691 145.541 70.723 145.388 70.723 145.2C70.723 145.013 70.5691 144.86 70.3804 144.86Z" fill="#2F2B53"/>
<path id="Vector_35" d="M99.2813 139.978H54.0627V141.854H99.2813V139.978Z" fill="#CCC6C1" stroke="#2F2B53" stroke-linecap="round" stroke-linejoin="round"/>
<path id="Vector_36" d="M78.6981 139.978H54.0627V141.854H78.6981V139.978Z" fill="#E8D8A0" stroke="#2F2B53" stroke-linecap="round" stroke-linejoin="round"/>
</g>
<g id="Group_7">
<path id="Vector_37" d="M65.2705 51.3943V110.883L57.1167 118.992H14.1178V51.3943H65.2705Z" fill="white" stroke="#2F2B53" stroke-linecap="round" stroke-linejoin="round"/>
<path id="Vector_38" d="M35.2573 60.5153H17.4847C17.2711 60.5153 17.1023 60.6831 17.1023 60.8953C17.1023 61.1075 17.2711 61.2753 17.4847 61.2753H35.2573C35.4708 61.2753 35.6396 61.1075 35.6396 60.8953C35.6396 60.6831 35.4708 60.5153 35.2573 60.5153Z" fill="#2F2B53"/>
<g id="Group_8">
<path id="Vector_39" d="M45.8592 79.7986H30.2715C30.058 79.7986 29.8892 79.9664 29.8892 80.1786C29.8892 80.3909 30.058 80.5587 30.2715 80.5587H45.8592C46.0727 80.5587 46.2415 80.3909 46.2415 80.1786C46.2415 79.9664 46.0727 79.7986 45.8592 79.7986Z" fill="#2F2B53"/>
<path id="Vector_40" d="M45.8593 82.4441H30.068C29.8545 82.4441 29.6857 82.6119 29.6857 82.8241C29.6857 83.0364 29.8545 83.2042 30.068 83.2042H45.8593C46.0728 83.2042 46.2417 83.0364 46.2417 82.8241C46.2417 82.6119 46.0728 82.4441 45.8593 82.4441Z" fill="#2F2B53"/>
<path id="Vector_41" d="M45.8593 85.0945H30.068C29.8545 85.0945 29.6857 85.2623 29.6857 85.4745C29.6857 85.6867 29.8545 85.8546 30.068 85.8546H45.8593C46.0728 85.8546 46.2417 85.6867 46.2417 85.4745C46.2417 85.2623 46.0728 85.0945 45.8593 85.0945Z" fill="#2F2B53"/>
<path id="Vector_42" d="M40.8339 87.7449H30.068C29.8545 87.7449 29.6857 87.9127 29.6857 88.1249C29.6857 88.3371 29.8545 88.505 30.068 88.505H40.8339C41.0474 88.505 41.2163 88.3371 41.2163 88.1249C41.2163 87.9127 41.0474 87.7449 40.8339 87.7449Z" fill="#2F2B53"/>
<path id="Vector_43" d="M45.8593 92.0487H23.8161C23.6026 92.0487 23.4337 92.2165 23.4337 92.4287C23.4337 92.641 23.6026 92.8088 23.8161 92.8088H45.8593C46.0728 92.8088 46.2416 92.641 46.2416 92.4287C46.2416 92.2165 46.0728 92.0487 45.8593 92.0487Z" fill="#2F2B53"/>
<path id="Vector_44" d="M45.8592 94.6991H17.1569C16.9434 94.6991 16.7745 94.8669 16.7745 95.0791C16.7745 95.2914 16.9434 95.4592 17.1569 95.4592H45.8592C46.0728 95.4592 46.2416 95.2914 46.2416 95.0791C46.2416 94.8669 46.0728 94.6991 45.8592 94.6991Z" fill="#2F2B53"/>
<path id="Vector_45" d="M45.8592 97.3446H17.1569C16.9434 97.3446 16.7745 97.5124 16.7745 97.7246C16.7745 97.9369 16.9434 98.1047 17.1569 98.1047H45.8592C46.0728 98.1047 46.2416 97.9369 46.2416 97.7246C46.2416 97.5124 46.0728 97.3446 45.8592 97.3446Z" fill="#2F2B53"/>
<path id="Vector_46" d="M45.8592 99.995H17.1569C16.9434 99.995 16.7745 100.163 16.7745 100.375C16.7745 100.587 16.9434 100.755 17.1569 100.755H45.8592C46.0728 100.755 46.2416 100.587 46.2416 100.375C46.2416 100.163 46.0728 99.995 45.8592 99.995Z" fill="#2F2B53"/>
<path id="Vector_47" d="M35.9276 102.645H17.1569C16.9434 102.645 16.7745 102.813 16.7745 103.025C16.7745 103.238 16.9434 103.405 17.1569 103.405H35.9276C36.1412 103.405 36.31 103.238 36.31 103.025C36.31 102.813 36.1412 102.645 35.9276 102.645Z" fill="#2F2B53"/>
<path id="Vector_48" d="M45.8593 106.855H23.8161C23.6026 106.855 23.4337 107.023 23.4337 107.236C23.4337 107.448 23.6026 107.616 23.8161 107.616H45.8593C46.0728 107.616 46.2416 107.448 46.2416 107.236C46.2416 107.023 46.0728 106.855 45.8593 106.855Z" fill="#2F2B53"/>
<path id="Vector_49" d="M45.8592 109.506H17.1569C16.9434 109.506 16.7745 109.674 16.7745 109.886C16.7745 110.098 16.9434 110.266 17.1569 110.266H45.8592C46.0728 110.266 46.2416 110.098 46.2416 109.886C46.2416 109.674 46.0728 109.506 45.8592 109.506Z" fill="#2F2B53"/>
<path id="Vector_50" d="M35.9276 112.151H17.1569C16.9434 112.151 16.7745 112.319 16.7745 112.531C16.7745 112.744 16.9434 112.911 17.1569 112.911H35.9276C36.1412 112.911 36.31 112.744 36.31 112.531C36.31 112.319 36.1412 112.151 35.9276 112.151Z" fill="#2F2B53"/>
</g>
<path id="Vector_51" d="M65.2705 51.3943H14.1178V57.1541H65.2705V51.3943Z" fill="#E8D8A0" stroke="#2F2B53" stroke-linecap="round" stroke-linejoin="round"/>
<g id="Group_9">
<path id="Vector_52" opacity="0.3" d="M39.6966 55.5796L40.2627 57.4847C40.2627 57.4847 38.8226 58.4471 39.6966 59.1431L40.5705 59.839C40.5705 59.839 39.9796 61.8774 40.9628 62.4154C41.9461 62.9533 45.1887 62.2574 45.9733 61.0482C46.7579 59.839 44.0516 58.6051 44.0516 58.6051C44.0516 58.6051 44.8461 57.613 44.4041 57.159C43.9622 56.6999 42.393 56.8974 42.393 56.8974L41.3104 55.0909L39.6966 55.5796Z" fill="black"/>
<path id="Vector_53" d="M43.9076 51.0043C43.9076 52.8799 42.2738 54.4 40.2627 54.4C38.2515 54.4 36.6178 52.8799 36.6178 51.0043C36.6178 49.1288 38.2515 47.6086 40.2627 47.6086C42.2738 47.6086 43.9076 49.1288 43.9076 51.0043Z" fill="#2F2B53"/>
<path id="Vector_54" d="M40.2627 56.32C42.1194 56.32 43.6246 55.2173 43.6246 53.8571C43.6246 52.4969 42.1194 51.3943 40.2627 51.3943C38.406 51.3943 36.9009 52.4969 36.9009 53.8571C36.9009 55.2173 38.406 56.32 40.2627 56.32Z" fill="#2F2B53"/>
<path id="Vector_55" d="M42.2689 53.2401C42.9492 52.7465 43.2224 52.1345 43.2224 52.1345" stroke="white" stroke-linecap="round" stroke-linejoin="round"/>
<path id="Vector_56" d="M37.3776 52.2826C37.3776 52.2826 38.2863 53.857 40.2577 53.857" stroke="white" stroke-linecap="round" stroke-linejoin="round"/>
</g>
<path id="Vector_57" d="M49.7772 58.842V117.472" stroke="#2F2B53" stroke-linecap="round" stroke-linejoin="round"/>
<g id="Group_10">
<path id="Vector_58" d="M62.1271 60.5153H52.4985C52.2849 60.5153 52.1161 60.6831 52.1161 60.8953C52.1161 61.1075 52.2849 61.2753 52.4985 61.2753H62.1271C62.3407 61.2753 62.5095 61.1075 62.5095 60.8953C62.5095 60.6831 62.3407 60.5153 62.1271 60.5153Z" fill="#2F2B53"/>
<path id="Vector_59" d="M62.1271 64.4637H52.4985C52.2849 64.4637 52.1161 64.6316 52.1161 64.8438C52.1161 65.056 52.2849 65.2238 52.4985 65.2238H62.1271C62.3407 65.2238 62.5095 65.056 62.5095 64.8438C62.5095 64.6316 62.3407 64.4637 62.1271 64.4637Z" fill="#2F2B53"/>
<path id="Vector_60" d="M62.1271 68.3876H52.4985C52.2849 68.3876 52.1161 68.5554 52.1161 68.7676C52.1161 68.9798 52.2849 69.1477 52.4985 69.1477H62.1271C62.3407 69.1477 62.5095 68.9798 62.5095 68.7676C62.5095 68.5554 62.3407 68.3876 62.1271 68.3876Z" fill="#2F2B53"/>
<path id="Vector_61" d="M62.1271 72.3163H52.4985C52.2849 72.3163 52.1161 72.4841 52.1161 72.6963C52.1161 72.9085 52.2849 73.0764 52.4985 73.0764H62.1271C62.3407 73.0764 62.5095 72.9085 62.5095 72.6963C62.5095 72.4841 62.3407 72.3163 62.1271 72.3163Z" fill="#2F2B53"/>
<path id="Vector_62" d="M62.1271 76.24H52.4985C52.2849 76.24 52.1161 76.4078 52.1161 76.62C52.1161 76.8323 52.2849 77.0001 52.4985 77.0001H62.1271C62.3407 77.0001 62.5095 76.8323 62.5095 76.62C62.5095 76.4078 62.3407 76.24 62.1271 76.24Z" fill="#2F2B53"/>
<path id="Vector_63" d="M62.1271 80.1638H52.4985C52.2849 80.1638 52.1161 80.3316 52.1161 80.5439C52.1161 80.7561 52.2849 80.9239 52.4985 80.9239H62.1271C62.3407 80.9239 62.5095 80.7561 62.5095 80.5439C62.5095 80.3316 62.3407 80.1638 62.1271 80.1638Z" fill="#2F2B53"/>
<path id="Vector_64" d="M62.1271 84.0876H52.4985C52.2849 84.0876 52.1161 84.2555 52.1161 84.4677C52.1161 84.6799 52.2849 84.8477 52.4985 84.8477H62.1271C62.3407 84.8477 62.5095 84.6799 62.5095 84.4677C62.5095 84.2555 62.3407 84.0876 62.1271 84.0876Z" fill="#2F2B53"/>
<path id="Vector_65" d="M62.1271 88.0115H52.4985C52.2849 88.0115 52.1161 88.1793 52.1161 88.3915C52.1161 88.6037 52.2849 88.7716 52.4985 88.7716H62.1271C62.3407 88.7716 62.5095 88.6037 62.5095 88.3915C62.5095 88.1793 62.3407 88.0115 62.1271 88.0115Z" fill="#2F2B53"/>
<path id="Vector_66" d="M62.1271 91.9352H52.4985C52.2849 91.9352 52.1161 92.103 52.1161 92.3152C52.1161 92.5274 52.2849 92.6953 52.4985 92.6953H62.1271C62.3407 92.6953 62.5095 92.5274 62.5095 92.3152C62.5095 92.103 62.3407 91.9352 62.1271 91.9352Z" fill="#2F2B53"/>
<path id="Vector_67" d="M62.1271 95.859H52.4985C52.2849 95.859 52.1161 96.0268 52.1161 96.2391C52.1161 96.4513 52.2849 96.6191 52.4985 96.6191H62.1271C62.3407 96.6191 62.5095 96.4513 62.5095 96.2391C62.5095 96.0268 62.3407 95.859 62.1271 95.859Z" fill="#2F2B53"/>
<path id="Vector_68" d="M62.1271 99.7828H52.4985C52.2849 99.7828 52.1161 99.9506 52.1161 100.163C52.1161 100.375 52.2849 100.543 52.4985 100.543H62.1271C62.3407 100.543 62.5095 100.375 62.5095 100.163C62.5095 99.9506 62.3407 99.7828 62.1271 99.7828Z" fill="#2F2B53"/>
<path id="Vector_69" d="M62.1271 103.707H52.4985C52.2849 103.707 52.1161 103.874 52.1161 104.087C52.1161 104.299 52.2849 104.467 52.4985 104.467H62.1271C62.3407 104.467 62.5095 104.299 62.5095 104.087C62.5095 103.874 62.3407 103.707 62.1271 103.707Z" fill="#2F2B53"/>
<path id="Vector_70" d="M62.1271 107.63H52.4985C52.2849 107.63 52.1161 107.798 52.1161 108.01C52.1161 108.223 52.2849 108.39 52.4985 108.39H62.1271C62.3407 108.39 62.5095 108.223 62.5095 108.01C62.5095 107.798 62.3407 107.63 62.1271 107.63Z" fill="#2F2B53"/>
<path id="Vector_71" d="M62.1271 111.554H52.4985C52.2849 111.554 52.1161 111.722 52.1161 111.934C52.1161 112.146 52.2849 112.314 52.4985 112.314H62.1271C62.3407 112.314 62.5095 112.146 62.5095 111.934C62.5095 111.722 62.3407 111.554 62.1271 111.554Z" fill="#2F2B53"/>
</g>
<path id="Vector_72" d="M65.3103 110.848L57.1167 118.992V110.848H65.3103Z" fill="#CCC6C1" stroke="#2F2B53" stroke-linecap="round" stroke-linejoin="round"/>
<path id="Vector_73" d="M46.8921 63.9159H16.9235V76.6201H46.8921V63.9159Z" fill="#908279" stroke="#2F2B53" stroke-linecap="round" stroke-linejoin="round"/>
<path id="Vector_74" d="M16.9235 71.64L17.862 70.2679L18.3884 70.6282L19.4362 68.7675L20.3052 70.9885L20.8762 70.6282L21.9886 73.0763L23.1655 70.2679L23.7564 70.9244L25.3951 66.6896L26.5124 69.8829H27.0984L28.0121 71.8325L28.8315 70.2679L29.7154 72.6962L31.9103 68.1209L33.1219 70.6282L33.5142 69.8829L33.9065 70.2679L35.6396 65.9098L38.0976 72.6666L39.4136 70.4061L39.6966 71.4426L40.9132 69.1525L41.8965 70.9244L42.7456 69.4881L43.9076 71.5709L45.6953 67.4744L46.2416 68.3875L46.8921 66.6156V76.62H16.9235V71.64Z" fill="#ADA39C" stroke="#2F2B53" stroke-linecap="round" stroke-linejoin="round"/>
<g id="Group_11">
<path id="Vector_75" d="M27.297 84.0382V84.0777C27.2771 86.733 25.0971 88.885 22.4156 88.885C21.3529 88.885 20.3747 88.5493 19.5752 87.9719C18.3436 87.0983 17.5392 85.6571 17.5392 84.0382C17.5392 81.3582 19.7241 79.1865 22.4156 79.1865C23.2945 79.1865 24.1238 79.4185 24.8339 79.8282C25.4398 80.1687 25.9661 80.6376 26.3733 81.2002C26.7061 81.6494 26.9543 82.1627 27.1083 82.7105C27.2324 83.1301 27.297 83.5743 27.297 84.0382Z" fill="white" stroke="#2F2B53" stroke-linecap="round" stroke-linejoin="round"/>
<path id="Vector_76" d="M27.297 84.0382C27.297 86.7133 25.1121 88.885 22.4156 88.885C21.353 88.885 20.3747 88.5494 19.5752 87.9719L22.4156 84.0382L27.1083 82.7106C27.2325 83.1301 27.297 83.5743 27.297 84.0382Z" fill="#CCC6C1" stroke="#2F2B53" stroke-miterlimit="10"/>
<path id="Vector_77" d="M27.297 84.0382V84.0777L22.4156 84.0382L24.834 79.8281C25.9314 80.4451 26.7607 81.4766 27.1083 82.7105C27.2325 83.13 27.297 83.5742 27.297 84.0382Z" fill="#ADA39C" stroke="#2F2B53" stroke-linecap="round" stroke-linejoin="round"/>
<path id="Vector_78" d="M26.3734 81.2002V81.2101L22.4156 84.0382V79.1865C23.2946 79.1865 24.1239 79.4185 24.834 79.8282C25.4398 80.1687 25.9662 80.6376 26.3734 81.2002Z" fill="#908279" stroke="#2F2B53" stroke-linecap="round" stroke-linejoin="round"/>
</g>
</g>
<g id="Group_12">
<g id="Group_13">
<g id="Group_14">
<path id="Vector_79" d="M195.598 195.361C195.598 195.361 194.928 195.706 192.812 195.706C190.9 195.706 190.021 195.361 190.021 195.361L187.365 169.434L185.056 146.888H190.632L192.921 169.212L195.598 195.361Z" fill="#ADA39C"/>
<g id="Clip path group">
<mask id="mask0_133_10007" style="mask-type:luminance" maskUnits="userSpaceOnUse" x="185" y="146" width="11" height="50">
<g id="clippath">
<path id="Vector_80" d="M195.598 195.361C195.598 195.361 194.928 195.706 192.812 195.706C190.9 195.706 190.021 195.361 190.021 195.361L187.365 169.434L185.056 146.888H190.632L192.921 169.212L195.598 195.361Z" fill="white"/>
</g>
</mask>
<g mask="url(#mask0_133_10007)">
<g id="Group_15">
<path id="Vector_81" opacity="0.3" d="M192.921 169.212C191.039 169.365 189.187 169.439 187.365 169.434L185.056 146.888H190.632L192.921 169.212Z" fill="black"/>
</g>
</g>
</g>
<path id="Vector_82" d="M195.598 195.361C195.598 195.361 194.928 195.706 192.812 195.706C190.9 195.706 190.021 195.361 190.021 195.361L187.365 169.434L185.056 146.888H190.632L192.921 169.212L195.598 195.361Z" stroke="#2F2B53" stroke-linecap="round" stroke-linejoin="round"/>
</g>
<g id="Group_16">
<path id="Vector_83" d="M154.382 146.888L152.897 161.359L149.416 195.361C149.416 195.361 148.746 195.706 146.63 195.706C144.718 195.706 143.839 195.361 143.839 195.361L147.598 158.664L148.805 146.888H154.382Z" fill="#ADA39C"/>
<g id="Clip path group_2">
<mask id="mask1_133_10007" style="mask-type:luminance" maskUnits="userSpaceOnUse" x="143" y="146" width="12" height="50">
<g id="clippath-1">
<path id="Vector_84" d="M154.382 146.888L152.897 161.359L149.416 195.361C149.416 195.361 148.746 195.706 146.63 195.706C144.718 195.706 143.839 195.361 143.839 195.361L147.598 158.664L148.805 146.888H154.382Z" fill="white"/>
</g>
</mask>
<g mask="url(#mask1_133_10007)">
<g id="Group_17">
<path id="Vector_85" opacity="0.3" d="M148.805 146.888H154.382L152.897 161.359C150.921 160.431 149.143 159.513 147.599 158.664L148.805 146.888Z" fill="black"/>
</g>
</g>
</g>
<path id="Vector_86" d="M154.382 146.888L152.897 161.359L149.416 195.361C149.416 195.361 148.746 195.706 146.63 195.706C144.718 195.706 143.839 195.361 143.839 195.361L147.598 158.664L148.805 146.888H154.382Z" stroke="#2F2B53" stroke-linecap="round" stroke-linejoin="round"/>
</g>
<g id="Group_18">
<path id="Vector_87" d="M172.507 146.888V195.361C172.507 195.361 171.837 195.706 169.721 195.706C167.809 195.706 166.93 195.361 166.93 195.361V146.888H172.507Z" fill="#ADA39C"/>
<g id="Clip path group_3">
<mask id="mask2_133_10007" style="mask-type:luminance" maskUnits="userSpaceOnUse" x="166" y="146" width="7" height="50">
<g id="clippath-2">
<path id="Vector_88" d="M172.507 146.888V195.361C172.507 195.361 171.837 195.706 169.721 195.706C167.809 195.706 166.93 195.361 166.93 195.361V146.888H172.507Z" fill="white"/>
</g>
</mask>
<g mask="url(#mask2_133_10007)">
<g id="Group_19">
<path id="Vector_89" opacity="0.3" d="M172.507 146.888V154.958C170.516 154.805 168.579 154.923 166.93 155.14V146.888H172.507Z" fill="black"/>
</g>
</g>
</g>
<path id="Vector_90" d="M172.507 146.888V195.361C172.507 195.361 171.837 195.706 169.721 195.706C167.809 195.706 166.93 195.361 166.93 195.361V146.888H172.507Z" stroke="#2F2B53" stroke-linecap="round" stroke-linejoin="round"/>
</g>
</g>
<g id="Group_20">
<g id="Group_21">
<path id="Vector_91" d="M193.329 139.899V147.49C193.329 148.127 192.807 148.714 192.162 148.793C177.254 150.575 162.183 150.575 147.276 148.793C146.63 148.714 146.109 148.127 146.109 147.49V139.899C146.109 139.263 146.63 138.675 147.276 138.596C162.183 136.819 177.254 136.819 192.162 138.596C192.807 138.675 193.329 139.263 193.329 139.899Z" fill="#CCC6C1"/>
<g id="Clip path group_4">
<mask id="mask3_133_10007" style="mask-type:luminance" maskUnits="userSpaceOnUse" x="146" y="137" width="48" height="14">
<g id="clippath-3">
<path id="Vector_92" d="M193.329 139.899V147.49C193.329 148.127 192.807 148.714 192.162 148.793C177.254 150.575 162.183 150.575 147.276 148.793C146.63 148.714 146.109 148.127 146.109 147.49V139.899C146.109 139.263 146.63 138.675 147.276 138.596C162.183 136.819 177.254 136.819 192.162 138.596C192.807 138.675 193.329 139.263 193.329 139.899Z" fill="white"/>
</g>
</mask>
<g mask="url(#mask3_133_10007)">
<g id="Group_22">
<path id="Vector_93" opacity="0.3" d="M193.329 139.899V144.164C188.854 145.921 181.768 145.718 174.334 145.481C162.163 145.101 161.359 142.742 156.681 143.32C154.57 143.581 150.091 143.517 146.109 143.058V139.899C146.109 139.263 146.63 138.675 147.276 138.596C162.183 136.819 177.254 136.819 192.162 138.596C192.807 138.675 193.329 139.263 193.329 139.899Z" fill="black"/>
</g>
</g>
</g>
</g>
<path id="Vector_94" d="M192.161 148.793C177.254 150.57 162.182 150.57 147.275 148.793C146.63 148.714 146.113 148.127 146.113 147.49V139.899C146.113 139.263 146.635 138.675 147.275 138.596C162.182 136.819 177.254 136.819 192.161 138.596C192.807 138.675 193.323 139.263 193.323 139.899V147.49C193.323 148.127 192.802 148.714 192.161 148.793Z" stroke="#2F2B53" stroke-linecap="round" stroke-linejoin="round"/>
</g>
</g>
<g id="Group_23">
<path id="Vector_95" d="M162.908 75.8107L147.469 91.7674C143.527 87.9275 132.87 75.6527 132.87 75.6527L129.121 81.0522C129.121 81.0522 134.881 90.6273 138.288 96.1996C141.694 101.772 145.885 104.136 146.014 104.383C146.144 104.63 162.908 92.5127 162.908 92.5127V75.8107Z" fill="white" stroke="#2F2B53" stroke-linecap="round" stroke-linejoin="round"/>
<g id="Vector_96">
<path d="M130.541 81.0522C130.541 81.0522 127.725 81.6494 126.469 80.1638C125.213 78.6733 119.939 75.0851 119.939 75.0851L122.874 65.3225L131.057 71.7289L132.989 76.5608" fill="white"/>
<path d="M130.541 81.0522C130.541 81.0522 127.725 81.6494 126.469 80.1638C125.213 78.6733 119.939 75.0851 119.939 75.0851L122.874 65.3225L131.057 71.7289L132.989 76.5608" stroke="#2F2B53" stroke-linecap="round" stroke-linejoin="round"/>
</g>
<path id="Vector_97" d="M162.908 74.1769C160.157 74.1127 151.119 86.2592 151.119 86.2592L150.136 87.0489C150.136 87.0489 152.773 96.3426 155.891 99.2003L158.811 97.7888H160.539L162.903 74.1769H162.908Z" fill="#2F2B53"/>
<path id="Vector_98" d="M202.058 96.1996C202.058 96.1996 204.829 111.169 204.228 113.514C203.628 115.858 202.843 119.372 199.243 119.372C195.643 119.372 194.719 107.004 194.719 107.004L192.762 101.145L202.063 96.1996H202.058Z" fill="white" stroke="#2F2B53" stroke-linecap="round" stroke-linejoin="round"/>
<g id="Group_24">
<path id="Vector_99" d="M143.124 184.749C143.124 184.749 145.875 192.039 144.957 196.856C144.957 196.856 135.397 197.374 134.086 197.508C132.776 197.636 127.263 199.329 126.156 199.067C125.049 198.806 120.728 198.287 120.728 198.287C120.728 198.287 120.073 194.902 121.647 194.25C123.216 193.599 132.309 192.69 134.275 185.529L143.124 184.749Z" fill="#2F2B53"/>
<path id="Vector_100" d="M136.763 190.997C136.763 190.997 135.73 189.305 133.237 189.305" stroke="white" stroke-linecap="round" stroke-linejoin="round"/>
<path id="Vector_101" d="M135.333 192.429C135.333 192.429 133.893 190.869 131.534 190.736" stroke="white" stroke-linecap="round" stroke-linejoin="round"/>
<path id="Vector_102" d="M132.517 193.924C132.517 193.924 131.181 192.473 129.438 192.429" stroke="white" stroke-linecap="round" stroke-linejoin="round"/>
</g>
<g id="Group_25">
<path id="Vector_103" d="M158.161 188.786L156.512 192.848C156.512 192.848 153.19 194.645 152.535 195.296C151.879 195.948 151.879 199.097 151.879 199.097C151.879 199.097 157.138 200.503 163.425 199.807C166.553 199.462 169.488 198.549 169.488 198.549L168.564 190.346L158.161 188.786Z" fill="#2F2B53"/>
<path id="Vector_104" d="M164.865 194.966C164.865 194.966 161.066 193.273 159.889 193.174C158.712 193.075 156.681 193.174 156.681 193.174" stroke="white" stroke-linecap="round" stroke-linejoin="round"/>
<path id="Vector_105" d="M162.183 195.36C162.183 195.36 158.647 193.983 157.336 194.053C156.025 194.122 155.176 194.053 155.176 194.053" stroke="white" stroke-linecap="round" stroke-linejoin="round"/>
<path id="Vector_106" d="M164.865 192.754C164.865 192.754 162.64 192.103 160.544 191.585C158.449 191.062 157.664 191.585 157.664 191.585" stroke="white" stroke-linecap="round" stroke-linejoin="round"/>
</g>
<g id="Group_26">
<g id="Group_27">
<path id="Vector_107" d="M188.964 144.139C187.131 147.263 178.878 146.78 178.878 146.78L178.734 147.377L169.493 186.042L170.665 187.518L169.493 191.521C168.271 192.824 157.5 190.835 156.348 189.221L157.396 186.042C157.396 186.042 157.977 148.764 158.906 141.834V141.8C158.975 141.341 159.04 141.02 159.104 140.857L140.507 143.152C140.507 143.152 142.374 177.775 143.949 179.705C145.518 181.635 144.142 184.749 144.142 184.749L145.15 189.467C145.15 189.467 140.274 189.127 135.477 188.984C134.489 188.954 133.506 188.934 132.567 188.929C132.567 188.929 132.413 188.574 132.16 187.617C131.907 186.654 132.875 184.749 132.875 184.749L131.986 183.599C131.986 183.599 132.453 180.189 132.453 179.122C132.453 178.056 120.45 139.559 121.598 137.066C125.421 128.779 145.399 123.37 154.297 121.342C156.919 120.739 158.583 120.433 158.583 120.433L187.047 122.23L187.747 122.274L190.17 122.427C190.17 122.427 190.801 141.015 188.964 144.139Z" fill="#E8D8A0"/>
<g id="Clip path group_5">
<mask id="mask4_133_10007" style="mask-type:luminance" maskUnits="userSpaceOnUse" x="121" y="120" width="70" height="72">
<g id="clippath-4">
<path id="Vector_108" d="M188.964 144.139C187.131 147.263 178.878 146.78 178.878 146.78L178.734 147.377L169.493 186.042L170.665 187.518L169.493 191.521C168.271 192.824 157.5 190.835 156.348 189.221L157.396 186.042C157.396 186.042 157.977 148.764 158.906 141.834V141.8C158.975 141.341 159.04 141.02 159.104 140.857L140.507 143.152C140.507 143.152 142.374 177.775 143.949 179.705C145.518 181.635 144.142 184.749 144.142 184.749L145.15 189.467C145.15 189.467 140.274 189.127 135.477 188.984C134.489 188.954 133.506 188.934 132.567 188.929C132.567 188.929 132.413 188.574 132.16 187.617C131.907 186.654 132.875 184.749 132.875 184.749L131.986 183.599C131.986 183.599 132.453 180.189 132.453 179.122C132.453 178.056 120.45 139.559 121.598 137.066C125.421 128.779 145.399 123.37 154.297 121.342C156.919 120.739 158.583 120.433 158.583 120.433L187.047 122.23L187.747 122.274L190.17 122.427C190.17 122.427 190.801 141.015 188.964 144.139Z" fill="white"/>
</g>
</mask>
<g mask="url(#mask4_133_10007)">
<g id="Group_28">
<path id="Vector_109" opacity="0.3" d="M180.626 127.072C180.626 127.072 164.433 128.508 160.003 134.248C159.328 135.117 159.104 140.857 159.104 140.857L140.507 143.152C140.507 143.152 142.374 177.775 143.949 179.705C145.518 181.635 144.142 184.749 144.142 184.749L145.15 189.467C145.15 189.467 140.274 189.127 135.477 188.984C133.764 187.158 134.275 185.534 134.275 185.534C138.809 186.491 141.401 184.7 141.401 184.7C141.401 184.7 136.162 180.667 136.763 178.066C137.364 175.46 136.003 166.221 136.003 166.221C135.323 170.125 134.474 171.092 134.474 171.092L134.816 162.272C134.816 162.272 124.686 151.769 129.349 145.481C134.017 139.198 155.415 133.152 153.056 132.368C150.697 131.583 150.568 129.056 150.568 129.056C154.233 128.212 159.472 128.992 159.104 127.866C158.826 127.027 155.807 123.217 154.297 121.342C156.919 120.739 158.583 120.433 158.583 120.433L187.047 122.23L174.463 123.316L180.626 127.072Z" fill="black"/>
<path id="Vector_110" opacity="0.3" d="M188.964 144.139C187.131 147.263 178.878 146.78 178.878 146.78C179.494 145.634 181.684 143.976 182.155 142.318C182.905 139.682 184.355 145.343 184.355 145.343C189.51 143.216 187.886 123.849 187.747 122.274L190.17 122.427C190.17 122.427 190.801 141.015 188.964 144.139Z" fill="black"/>
</g>
</g>
</g>
<path id="Vector_111" d="M188.964 144.139C187.131 147.263 178.878 146.78 178.878 146.78L178.734 147.377L169.493 186.042L170.665 187.518L169.493 191.521C168.271 192.824 157.5 190.835 156.348 189.221L157.396 186.042C157.396 186.042 157.977 148.764 158.906 141.834V141.8C158.975 141.341 159.04 141.02 159.104 140.857L140.507 143.152C140.507 143.152 142.374 177.775 143.949 179.705C145.518 181.635 144.142 184.749 144.142 184.749L145.15 189.467C145.15 189.467 140.274 189.127 135.477 188.984C134.489 188.954 133.506 188.934 132.567 188.929C132.567 188.929 132.413 188.574 132.16 187.617C131.907 186.654 132.875 184.749 132.875 184.749L131.986 183.599C131.986 183.599 132.453 180.189 132.453 179.122C132.453 178.056 120.45 139.559 121.598 137.066C125.421 128.779 145.399 123.37 154.297 121.342C156.919 120.739 158.583 120.433 158.583 120.433L187.047 122.23L187.747 122.274L190.17 122.427C190.17 122.427 190.801 141.015 188.964 144.139Z" stroke="#2F2B53" stroke-linecap="round" stroke-linejoin="round"/>
</g>
<path id="Vector_112" d="M159.104 140.852C159.104 140.852 158.975 134.697 160.544 133.527C162.114 132.358 169.582 132.16 171.544 132.55C173.51 132.94 178.024 137.432 178.024 137.432" stroke="#2F2B53" stroke-linecap="round" stroke-linejoin="round"/>
<path id="Vector_113" d="M175.303 127.866C175.303 127.866 163.489 130.013 160.544 133.527" stroke="#2F2B53" stroke-linecap="round" stroke-linejoin="round"/>
<path id="Vector_114" d="M166.513 130.191C166.513 130.191 151.859 130.793 146.382 127.866" stroke="#2F2B53" stroke-linecap="round" stroke-linejoin="round"/>
<path id="Vector_115" d="M132.87 148.369C135.253 150.126 140.507 143.152 140.507 143.152C140.507 143.152 135.02 143.986 134.816 143.152C134.613 142.318 136.763 142.318 136.763 142.318" stroke="#2F2B53" stroke-linecap="round" stroke-linejoin="round"/>
<path id="Vector_116" d="M136.689 154.227C136.689 154.227 137.612 168.871 132.87 173.363" stroke="#2F2B53" stroke-linecap="round" stroke-linejoin="round"/>
<path id="Vector_117" d="M178.873 146.779C178.873 146.779 182.15 143.487 182.15 142.318C182.15 141.148 183.312 144.178 182.15 145.486" stroke="#2F2B53" stroke-linecap="round" stroke-linejoin="round"/>
<path id="Vector_118" d="M172.527 152.663C172.527 152.663 165.53 168.871 160.544 170.628" stroke="#2F2B53" stroke-linecap="round" stroke-linejoin="round"/>
<path id="Vector_119" d="M169.488 186.042C169.488 186.042 164.08 187.158 161.523 184.749" stroke="#2F2B53" stroke-linecap="round" stroke-linejoin="round"/>
<path id="Vector_120" d="M132.87 184.749C132.87 184.749 137.558 186.743 140.507 186.299" stroke="#2F2B53" stroke-linecap="round" stroke-linejoin="round"/>
</g>
<path id="Vector_121" d="M199.754 82.4786C197.743 78.1797 184.827 75.8007 178.555 74.9123C172.284 74.0239 165.6 74.3102 162.908 74.1769C160.217 74.0437 158.399 88.8603 158.399 88.8603C158.399 88.8603 159.392 109.817 159.541 114.269C159.541 114.269 160.152 115.483 159.258 116.371C158.364 117.26 158.265 118.647 158.265 118.647L156.363 120.325C156.363 120.325 164.274 123.661 168.405 127.605C173.177 132.155 178.55 116.87 190.558 135.028C190.558 135.028 192.355 131.775 192.072 131.035C191.784 130.295 192.887 124.48 192.638 123.824C192.385 123.168 192.762 104.141 192.762 104.141L194.049 104.995C194.049 104.995 196.889 101.476 203.618 104.245L204.328 100.839L203.31 99.916C203.31 99.916 201.696 86.6343 199.759 82.4835L199.754 82.4786Z" fill="#2F2B53"/>
<g id="Vector_122">
<path d="M187.335 66.7291C187.335 66.7291 183.62 68.9403 185.12 76.6892C185.12 76.6892 179.514 80.2526 174.369 76.1018C174.369 76.1018 175.918 70.0656 174.747 68.7823" fill="white"/>
<path d="M187.335 66.7291C187.335 66.7291 183.62 68.9403 185.12 76.6892C185.12 76.6892 179.514 80.2526 174.369 76.1018C174.369 76.1018 175.918 70.0656 174.747 68.7823" stroke="#2F2B53" stroke-linecap="round" stroke-linejoin="round"/>
</g>
<g id="Group_29">
<path id="Vector_123" d="M179.25 50.9204C179.25 50.9204 176.072 50.2788 174.751 54.1335C173.43 57.9931 175.119 61.3098 175.119 61.3098L181.291 56.0929L179.25 50.9155V50.9204Z" fill="#2F2B53"/>
<g id="Vector_124">
<path d="M186.118 68.9748C190.498 64.2959 193.835 56.2953 187.812 52.7219C176.187 45.8269 171.598 57.8845 173.018 69.4239C173.455 72.9726 178.337 71.6499 181.927 70.5591" fill="white"/>
<path d="M186.118 68.9748C190.498 64.2959 193.835 56.2953 187.812 52.7219C176.187 45.8269 171.598 57.8845 173.018 69.4239C173.455 72.9726 178.337 71.6499 181.927 70.5591" stroke="#2F2B53" stroke-linecap="round" stroke-linejoin="round"/>
</g>
<path id="Vector_125" d="M178.327 57.9142C178.327 57.9142 180.268 58.5459 180.715 59.6219" stroke="#2F2B53" stroke-linecap="round" stroke-linejoin="round"/>
<path id="Vector_126" d="M175.491 57.2528C175.491 57.2528 174.746 56.8086 174.007 57.2528" stroke="#2F2B53" stroke-linecap="round" stroke-linejoin="round"/>
<path id="Vector_127" d="M178.148 60.614C178.093 60.9644 178.232 61.2753 178.461 61.305C178.684 61.3395 178.908 61.0829 178.962 60.7324C179.017 60.382 178.878 60.0711 178.65 60.0414C178.426 60.0069 178.203 60.2635 178.148 60.614Z" fill="#2F2B53"/>
<path id="Vector_128" d="M173.927 59.3455C173.873 59.696 174.012 60.0069 174.24 60.0365C174.463 60.0711 174.687 59.8144 174.742 59.464C174.796 59.1136 174.657 58.8026 174.429 58.773C174.205 58.7385 173.982 58.9951 173.927 59.3455Z" fill="#2F2B53"/>
<path id="Vector_129" d="M184.574 63.2348C184.574 63.2348 182.582 65.8062 181.291 66.5959C179.995 67.3856 178.555 66.9908 178.555 66.9908C178.555 66.9908 177.07 64.9622 174.751 64.8142C174.751 64.8142 173.659 64.0491 172.795 64.0343L173.078 61.0631C173.078 61.0631 170.987 67.356 171.037 69.6461C171.087 71.9362 176.653 73.8167 179.519 73.3231C182.384 72.8296 184.042 68.5307 185.115 64.4539C185.199 64.133 184.574 63.2348 184.574 63.2348Z" fill="#2F2B53"/>
<g id="Vector_130">
<path d="M175.715 58.5903C175.715 59.1481 172.542 62.3759 172.467 63.1163C172.393 63.8566 175.193 64.0442 175.193 64.0442" fill="white"/>
<path d="M175.715 58.5903C175.715 59.1481 172.542 62.3759 172.467 63.1163C172.393 63.8566 175.193 64.0442 175.193 64.0442" stroke="#2F2B53" stroke-linecap="round" stroke-linejoin="round"/>
</g>
<path id="Vector_131" d="M173.028 66.2059C173.028 66.2059 175.208 67.3905 177.21 67.2375" stroke="white" stroke-linecap="round" stroke-linejoin="round"/>
<path id="Vector_132" d="M184.623 54.8294C185.383 54.2717 183.63 53.0477 182.582 53.0477C181.535 53.0477 177.756 52.6528 177.756 52.6528C177.756 52.6528 176.062 50.2295 178.178 48.9413C180.293 47.6531 183.576 48.2503 183.576 48.2503C183.576 48.2503 182.781 48.349 182.483 48.7932C182.483 48.7932 185.17 48.8426 186.317 49.8297C187.459 50.8168 188.109 51.7595 189.351 52.4998C190.597 53.2402 192.137 56.9024 191.491 59.918C190.846 62.9337 188.929 68.195 185.88 69.6461C185.88 69.6461 184.862 69.4881 185.517 68.8218C188.601 65.7075 185.865 59.3998 185.115 64.4538L184.122 63.7974C184.122 63.7974 184.087 63.5309 184.38 62.1489C184.673 60.762 181.043 57.4502 184.623 54.8294Z" fill="#2F2B53"/>
<g id="Vector_133">
<path d="M185.969 62.9386C185.969 62.9386 187.96 60.8213 189.053 61.6307C190.145 62.4401 189.252 65.0659 188.606 65.7075C187.96 66.3491 187.464 66.4626 186.565 67.4892C185.666 68.5109 184.623 68.0963 184.822 67.2474" fill="white"/>
<path d="M185.969 62.9386C185.969 62.9386 187.96 60.8213 189.053 61.6307C190.145 62.4401 189.252 65.0659 188.606 65.7075C187.96 66.3491 187.464 66.4626 186.565 67.4892C185.666 68.5109 184.623 68.0963 184.822 67.2474" stroke="#2F2B53" stroke-linecap="round" stroke-linejoin="round"/>
</g>
</g>
<g id="Vector_134">
<path d="M204.229 113.514C203.628 115.858 202.843 119.372 199.243 119.372C195.643 119.372 185.12 108.83 185.12 108.83L189.565 105.296L194.719 107.009C194.719 107.009 198.587 107.788 200.097 109.091" fill="white"/>
<path d="M204.229 113.514C203.628 115.858 202.843 119.372 199.243 119.372C195.643 119.372 185.12 108.83 185.12 108.83L189.565 105.296L194.719 107.009C194.719 107.009 198.587 107.788 200.097 109.091" stroke="#2F2B53" stroke-linecap="round" stroke-linejoin="round"/>
</g>
<path id="Vector_135" d="M185.125 78.1106C185.125 78.1106 178.694 81.3632 174.334 78.6288" stroke="white" stroke-linecap="round" stroke-linejoin="round"/>
<path id="Vector_136" d="M161.721 115.596C161.721 115.596 171.126 122.758 178.079 122.625" stroke="white" stroke-linecap="round" stroke-linejoin="round"/>
<path id="Vector_137" d="M183.819 103.721C183.819 103.721 176.782 115.725 165.912 112.99" stroke="white" stroke-linecap="round" stroke-linejoin="round"/>
<path id="Vector_138" d="M194.679 81.689C194.679 81.689 187.161 88.4902 189.569 94.1661" stroke="white" stroke-linecap="round" stroke-linejoin="round"/>
<g id="Group_30">
<path id="Vector_139" d="M198.116 90.9382L197.038 89.6056C197.038 89.6056 187.961 90.6519 183.899 96.0416C183.899 96.0416 176.42 92.5324 169.716 94.2401L169.518 96.6339L184.216 105.37L189.972 102.996L198.116 90.9382Z" fill="white" stroke="#2F2B53" stroke-linecap="round" stroke-linejoin="round"/>
<g id="Group_31">
<path id="Vector_140" d="M199.595 90.1436L198.046 100.41C198.046 100.41 189.49 104.146 187.702 107.147L187.28 107.206L185.269 107.482C185.269 107.482 184.857 107.359 184.182 107.166C182.444 106.678 178.948 105.755 176.087 105.404C175 105.261 174.002 105.212 173.227 105.296L167.437 96.3278C167.437 96.3278 176.39 95.0989 182.583 97.2064L185.542 96.9991C185.542 96.9991 185.577 96.9695 185.651 96.9053C186.535 96.1897 192.772 91.2639 199.595 90.1436Z" fill="#E8D8A0"/>
<g id="Clip path group_6">
<mask id="mask5_133_10007" style="mask-type:luminance" maskUnits="userSpaceOnUse" x="167" y="90" width="33" height="18">
<g id="clippath-5">
<path id="Vector_141" d="M199.595 90.1436L198.046 100.41C198.046 100.41 189.49 104.146 187.702 107.147L187.28 107.206L185.269 107.482C185.269 107.482 184.857 107.359 184.182 107.166C182.444 106.678 178.948 105.755 176.087 105.404C175 105.261 174.002 105.212 173.227 105.296L167.437 96.3278C167.437 96.3278 176.39 95.0989 182.583 97.2064L185.542 96.9991C185.542 96.9991 185.577 96.9695 185.651 96.9053C186.535 96.1897 192.772 91.2639 199.595 90.1436Z" fill="white"/>
</g>
</mask>
<g mask="url(#mask5_133_10007)">
<g id="Group_32">
<path id="Vector_142" opacity="0.3" d="M187.171 104.812L185.651 96.9053C186.535 96.1897 192.772 91.2639 199.595 90.1436L198.046 100.41C198.046 100.41 189.49 104.146 187.702 107.147L187.28 107.206L187.171 104.812Z" fill="black"/>
<path id="Vector_143" opacity="0.3" d="M184.226 105.37L184.182 107.166C182.444 106.678 178.948 105.755 176.087 105.404C176.663 98.8352 182.722 97.7888 182.722 97.7888L184.226 105.37Z" fill="black"/>
</g>
</g>
</g>
<path id="Vector_144" d="M199.595 90.1436L198.046 100.41C198.046 100.41 189.49 104.146 187.702 107.147L187.28 107.206L185.269 107.482C185.269 107.482 184.857 107.359 184.182 107.166C182.444 106.678 178.948 105.755 176.087 105.404C175 105.261 174.002 105.212 173.227 105.296L167.437 96.3278C167.437 96.3278 176.39 95.0989 182.583 97.2064L185.542 96.9991C185.542 96.9991 185.577 96.9695 185.651 96.9053C186.535 96.1897 192.772 91.2639 199.595 90.1436Z" stroke="#2F2B53" stroke-linecap="round" stroke-linejoin="round"/>
</g>
</g>
<g id="Group_33">
<g id="Vector_145">
<path d="M190.275 106.031C190.275 104.995 190.821 101.989 191.188 101.713C191.556 101.436 191.417 99.4373 192.107 98.539C192.802 97.6407 191.342 97.6407 190.508 98.0553C189.679 98.4699 188.397 100.607 187.98 100.952C187.563 101.298 186.208 101.643 185.582 101.574C184.956 101.505 181.227 99.0079 180.527 99.0918C180.08 99.1461 175.938 98.6772 175.938 98.6772C175.938 98.6772 174.965 99.5755 175.521 99.916C176.077 100.262 177.046 100.883 177.046 100.883C177.046 100.883 175.933 101.574 176.768 102.399C177.602 103.228 178.223 104.792 178.223 104.792C178.223 104.792 184.057 109.466 187.121 109.654" fill="white"/>
<path d="M190.275 106.031C190.275 104.995 190.821 101.989 191.188 101.713C191.556 101.436 191.417 99.4373 192.107 98.539C192.802 97.6407 191.342 97.6407 190.508 98.0553C189.679 98.4699 188.397 100.607 187.98 100.952C187.563 101.298 186.208 101.643 185.582 101.574C184.956 101.505 181.227 99.0079 180.527 99.0918C180.08 99.1461 175.938 98.6772 175.938 98.6772C175.938 98.6772 174.965 99.5755 175.521 99.916C176.077 100.262 177.046 100.883 177.046 100.883C177.046 100.883 175.933 101.574 176.768 102.399C177.602 103.228 178.223 104.792 178.223 104.792C178.223 104.792 184.057 109.466 187.121 109.654" stroke="#2F2B53" stroke-linecap="round" stroke-linejoin="round"/>
</g>
<path id="Vector_146" d="M177.051 100.883C177.051 100.883 178.684 101.081 179.404 101.54" stroke="#2F2B53" stroke-linecap="round" stroke-linejoin="round"/>
<path id="Vector_147" d="M180.124 102.517C180.124 102.517 179.861 103.563 179.797 103.726C179.732 103.884 180.646 104.911 180.517 105.375C180.388 105.839 181.455 107.107 181.455 107.107" stroke="#2F2B53" stroke-linecap="round" stroke-linejoin="round"/>
<path id="Vector_148" d="M179.077 103.721C179.077 103.721 176.986 102.675 176.773 102.399" stroke="#2F2B53" stroke-linecap="round" stroke-linejoin="round"/>
</g>
<path id="Vector_149" opacity="0.3" d="M158.911 141.799C158.975 141.34 159.04 141.02 159.104 140.857L158.911 141.799Z" fill="black"/>
<path id="Vector_150" opacity="0.3" d="M178.734 147.377C178.719 147.189 178.764 146.992 178.878 146.78L178.734 147.377Z" fill="black"/>
<path id="Vector_151" d="M161.721 76.8915C161.721 76.8915 157.783 86.9749 160.544 94.8965" stroke="white" stroke-linecap="round" stroke-linejoin="round"/>
<g id="Group_34">
<g id="Group_35">
<path id="Vector_152" d="M123.976 12.9806L130.511 72.1139L123.296 81.0523L80.5502 85.7213L73.1263 18.5282L123.976 12.9806Z" fill="white" stroke="#2F2B53" stroke-linecap="round" stroke-linejoin="round"/>
<path id="Vector_153" d="M123.973 12.9807L73.1263 18.5333L73.7592 24.2587L124.606 18.7061L123.973 12.9807Z" fill="#E8D8A0" stroke="#2F2B53" stroke-linecap="round" stroke-linejoin="round"/>
<path id="Vector_154" d="M97.1758 60.5646L81.315 62.297C81.1263 62.3167 80.9922 62.4845 81.0121 62.6721C81.0319 62.8596 81.2008 62.9929 81.3895 62.9731L97.2503 61.2407C97.439 61.221 97.573 61.0532 97.5532 60.8656C97.5333 60.6781 97.3645 60.5448 97.1758 60.5646Z" fill="#2F2B53"/>
<path id="Vector_155" d="M130.541 72.0745L123.296 81.0523L122.402 72.9629L130.541 72.0745Z" fill="#CCC6C1" stroke="#2F2B53" stroke-linecap="round" stroke-linejoin="round"/>
<g id="Group_36">
<g id="Group_37">
<path id="Vector_156" d="M95.2204 64.604L81.3845 66.1149L82.499 76.1968L96.3349 74.6859L95.2204 64.604Z" fill="#E8D8A0"/>
<g id="Clip path group_7">
<mask id="mask6_133_10007" style="mask-type:luminance" maskUnits="userSpaceOnUse" x="81" y="64" width="16" height="13">
<g id="clippath-6">
<path id="Vector_157" d="M95.2204 64.604L81.3845 66.1149L82.499 76.1968L96.3349 74.6859L95.2204 64.604Z" fill="white"/>
</g>
</mask>
<g mask="url(#mask6_133_10007)">
<g id="Group_38">
<path id="Vector_158" opacity="0.5" d="M95.2204 64.604L81.3845 66.1149L82.499 76.1968L96.3349 74.6859L95.2204 64.604Z" fill="white" stroke="#2F2B53" stroke-linecap="round" stroke-linejoin="round"/>
</g>
</g>
</g>
<path id="Vector_159" d="M95.2204 64.604L81.3845 66.1149L82.499 76.1968L96.3349 74.6859L95.2204 64.604Z" stroke="#2F2B53" stroke-linecap="round" stroke-linejoin="round"/>
</g>
<path id="Vector_160" d="M82.1542 73.0763C82.1542 73.0763 83.4403 70.7269 84.7215 70.5838C85.9977 70.4407 88.1578 73.1108 90.2236 73.0763C92.2844 73.0368 93.655 70.643 96.0088 71.6746" stroke="#2F2B53" stroke-linecap="round" stroke-linejoin="round"/>
<path id="Vector_161" d="M91.7531 66.8378C91.8524 67.0253 91.9219 67.2326 91.9418 67.4547C92.0163 68.3135 91.3707 69.0686 90.5067 69.1427C90.4819 69.1427 90.457 69.1427 90.4272 69.1427C90.7153 69.6708 91.2963 70.0064 91.9368 69.9521C92.8009 69.8781 93.4464 69.1229 93.372 68.2641C93.3024 67.43 92.5824 66.8131 91.7531 66.8378Z" stroke="#2F2B53" stroke-linecap="round" stroke-linejoin="round"/>
</g>
<g id="Group_39">
<g id="Group_40">
<path id="Vector_162" d="M110.764 62.8386L96.9283 64.3495L98.0428 74.4315L111.879 72.9205L110.764 62.8386Z" fill="#E8D8A0"/>
<g id="Clip path group_8">
<mask id="mask7_133_10007" style="mask-type:luminance" maskUnits="userSpaceOnUse" x="96" y="62" width="16" height="13">
<g id="clippath-7">
<path id="Vector_163" d="M110.764 62.8386L96.9283 64.3495L98.0428 74.4315L111.879 72.9205L110.764 62.8386Z" fill="white"/>
</g>
</mask>
<g mask="url(#mask7_133_10007)">
<g id="Group_41">
<path id="Vector_164" opacity="0.5" d="M110.764 62.8386L96.9283 64.3495L98.0428 74.4315L111.879 72.9205L110.764 62.8386Z" fill="white" stroke="#2F2B53" stroke-linecap="round" stroke-linejoin="round"/>
</g>
</g>
</g>
<path id="Vector_165" d="M110.764 62.8386L96.9283 64.3495L98.0428 74.4315L111.879 72.9205L110.764 62.8386Z" stroke="#2F2B53" stroke-linecap="round" stroke-linejoin="round"/>
</g>
<path id="Vector_166" d="M97.5183 69.7152L103.433 69.1328L106.546 70.9392L111.586 70.4062" stroke="#2F2B53" stroke-linecap="round" stroke-linejoin="round"/>
<path id="Vector_167" d="M107.534 64.6316L108.125 65.4657L109.153 65.4558L108.533 66.2751L108.86 67.2425L107.887 66.9118L107.063 67.5189L107.078 66.4972L106.243 65.905L107.222 65.6039L107.534 64.6316Z" stroke="#2F2B53" stroke-linecap="round" stroke-linejoin="round"/>
</g>
<g id="Group_42">
<g id="Group_43">
<path id="Vector_168" d="M126.303 61.0687L112.467 62.5796L113.582 72.6616L127.418 71.1506L126.303 61.0687Z" fill="#E8D8A0"/>
<g id="Clip path group_9">
<mask id="mask8_133_10007" style="mask-type:luminance" maskUnits="userSpaceOnUse" x="112" y="61" width="16" height="12">
<g id="clippath-8">
<path id="Vector_169" d="M126.303 61.0687L112.467 62.5796L113.582 72.6616L127.418 71.1506L126.303 61.0687Z" fill="white"/>
</g>
</mask>
<g mask="url(#mask8_133_10007)">
<g id="Group_44">
<path id="Vector_170" opacity="0.5" d="M126.303 61.0687L112.467 62.5796L113.582 72.6616L127.418 71.1506L126.303 61.0687Z" fill="white" stroke="#2F2B53" stroke-linecap="round" stroke-linejoin="round"/>
</g>
</g>
</g>
<path id="Vector_171" d="M126.303 61.0687L112.467 62.5796L113.582 72.6616L127.418 71.1506L126.303 61.0687Z" stroke="#2F2B53" stroke-linecap="round" stroke-linejoin="round"/>
</g>
<path id="Vector_172" d="M113.185 69.0933L126.956 67.5386" stroke="#2F2B53" stroke-linecap="round" stroke-linejoin="round"/>
<path id="Vector_173" d="M124.503 64.207C124.657 65.0214 124.11 65.8111 123.291 65.9592C122.472 66.1122 121.677 65.5693 121.528 64.7549C121.374 63.9405 121.92 63.1508 122.74 63.0028C123.559 62.8497 124.354 63.3927 124.503 64.207Z" stroke="#2F2B53" stroke-linecap="round" stroke-linejoin="round"/>
</g>
<g id="Group_45">
<path id="Vector_174" d="M121.954 21.6869L77.0062 26.5953L80.6263 59.3433L125.574 54.4349L121.954 21.6869Z" fill="#E8D8A0"/>
<g id="Clip path group_10">
<mask id="mask9_133_10007" style="mask-type:luminance" maskUnits="userSpaceOnUse" x="77" y="21" width="49" height="39">
<g id="clippath-9">
<path id="Vector_175" d="M121.954 21.6869L77.0062 26.5953L80.6263 59.3433L125.574 54.4349L121.954 21.6869Z" fill="white"/>
</g>
</mask>
<g mask="url(#mask9_133_10007)">
<g id="Group_46">
<path id="Vector_176" opacity="0.4" d="M79.5819 49.9235L90.3875 39.5094L98.2831 44.7806L102.886 40.3435L125.143 50.5553L125.57 54.4396L80.6247 59.3455L79.5819 49.9235Z" fill="#908279"/>
<path id="Vector_177" opacity="0.4" d="M115.748 32.4416C115.942 34.2036 114.665 35.788 112.893 35.9804C111.12 36.1729 109.526 34.9045 109.332 33.1425C109.138 31.3805 110.415 29.7961 112.187 29.6037C113.96 29.4112 115.554 30.6796 115.748 32.4416Z" fill="white"/>
<path id="Vector_178" d="M79.5819 49.9235L90.3875 39.5094L98.2831 44.7806L102.886 40.3435L125.143 50.5552L125.57 54.4396L80.6247 59.3455L79.5819 49.9235Z" stroke="#2F2B53" stroke-linecap="round" stroke-linejoin="round"/>
<path id="Vector_179" d="M115.748 32.4416C115.942 34.2036 114.665 35.788 112.893 35.9804C111.12 36.1729 109.526 34.9045 109.332 33.1425C109.138 31.3805 110.415 29.7961 112.187 29.6037C113.96 29.4112 115.554 30.6796 115.748 32.4416Z" stroke="#2F2B53" stroke-linecap="round" stroke-linejoin="round"/>
</g>
</g>
</g>
<path id="Vector_180" d="M121.954 21.6869L77.0062 26.5953L80.6263 59.3433L125.574 54.4349L121.954 21.6869Z" stroke="#2F2B53" stroke-linecap="round" stroke-linejoin="round"/>
</g>
</g>
<g id="Group_47">
<path id="Vector_181" opacity="0.3" d="M98.288 19.7324L98.8541 21.6375C98.8541 21.6375 97.414 22.6 98.288 23.2959L99.162 23.9918C99.162 23.9918 98.571 26.0302 99.5543 26.5682C100.537 27.1062 103.78 26.4103 104.565 25.201C105.349 23.9918 102.643 22.7579 102.643 22.7579C102.643 22.7579 103.438 21.7659 102.996 21.3118C102.554 20.8528 100.984 21.0502 100.984 21.0502L99.9019 19.2438L98.288 19.7324Z" fill="black"/>
<path id="Vector_182" d="M98.8541 18.5528C100.867 18.5528 102.499 17.0325 102.499 15.1572C102.499 13.2818 100.867 11.7615 98.8541 11.7615C96.8411 11.7615 95.2092 13.2818 95.2092 15.1572C95.2092 17.0325 96.8411 18.5528 98.8541 18.5528Z" fill="#2F2B53"/>
<path id="Vector_183" d="M102.216 18.0149C102.216 19.3771 100.711 20.4777 98.8542 20.4777C96.9969 20.4777 95.4923 19.3771 95.4923 18.0149C95.4923 16.6526 96.9969 15.552 98.8542 15.552C100.711 15.552 102.216 16.6526 102.216 18.0149Z" fill="#2F2B53"/>
<path id="Vector_184" d="M100.865 17.3979C101.546 16.9044 101.819 16.2924 101.819 16.2924" stroke="white" stroke-linecap="round" stroke-linejoin="round"/>
<path id="Vector_185" d="M95.974 16.4404C95.974 16.4404 96.8827 18.0149 98.8542 18.0149" stroke="white" stroke-linecap="round" stroke-linejoin="round"/>
</g>
</g>
<g id="Vector_186">
<path d="M132.264 78.1106C132.264 78.1106 134.36 74.5669 133.312 72.4199C132.264 70.2729 130.437 65.3274 130.546 63.062C130.546 63.062 128.53 63.062 129.121 66.206C129.414 67.7656 129.121 69.651 129.121 69.651C129.121 69.651 127.929 73.3577 128.917 75.6527" fill="white"/>
<path d="M132.264 78.1106C132.264 78.1106 134.36 74.5669 133.312 72.4199C132.264 70.2729 130.437 65.3274 130.546 63.062C130.546 63.062 128.53 63.062 129.121 66.206C129.414 67.7656 129.121 69.651 129.121 69.651C129.121 69.651 127.929 73.3577 128.917 75.6527" stroke="#2F2B53" stroke-linecap="round" stroke-linejoin="round"/>
</g>
<path id="Vector_187" d="M147.469 91.7673C147.469 91.7673 148.502 93.5688 148.239 95.5233" stroke="#2F2B53" stroke-linecap="round" stroke-linejoin="round"/>
<g id="Group_48">
<path id="Vector_188" d="M190.875 96.3477L189.699 95.3063L188.69 96.8906L188.561 94.9015C188.537 94.5462 188.452 94.2451 188.293 93.9243L190.24 92.8878L190.409 93.0458C190.647 93.4209 190.687 93.9687 190.771 94.4672L190.88 96.3477H190.875Z" fill="white" stroke="#2F2B53" stroke-linecap="round" stroke-linejoin="round"/>
<path id="Vector_189" d="M187.345 94.5955C188.144 94.1562 189.987 93.1494 191.144 92.562C191.223 92.5225 191.168 92.3449 191.084 92.3695C190.131 92.5867 188.437 93.1494 187.255 94.4622C187.211 94.5165 187.255 94.6054 187.345 94.5955Z" fill="#2F2B53"/>
</g>
</g>
</g>
<defs>
<clipPath id="clip0_133_10007">
<rect width="212" height="200" fill="white"/>
</clipPath>
</defs>
</svg>
