<svg width="16" height="16" viewBox="0 0 16 16" fill="none" xmlns="http://www.w3.org/2000/svg">
<g id="ic_fluent_clock_24_filled 1">
<path id="Vector" d="M10.1667 9.00001H7.50004C7.36743 9.00001 7.24026 8.94733 7.14649 8.85356C7.05272 8.75979 7.00004 8.63262 7.00004 8.50001V4.50001C7.00004 4.3674 7.05272 4.24022 7.14649 4.14646C7.24026 4.05269 7.36743 4.00001 7.50004 4.00001C7.63265 4.00001 7.75983 4.05269 7.85359 4.14646C7.94736 4.24022 8.00004 4.3674 8.00004 4.50001V8.00001H10.1667C10.2993 8.00001 10.4265 8.05269 10.5203 8.14646C10.614 8.24022 10.6667 8.3674 10.6667 8.50001C10.6667 8.63262 10.614 8.75979 10.5203 8.85356C10.4265 8.94733 10.2993 9.00001 10.1667 9.00001ZM8.00004 1.33334C4.31871 1.33334 1.33337 4.31868 1.33337 8.00001C1.33337 11.6813 4.31871 14.6667 8.00004 14.6667C11.6814 14.6667 14.6667 11.6813 14.6667 8.00001C14.6667 4.31868 11.6814 1.33334 8.00004 1.33334Z" fill="#8C8C8C"/>
</g>
</svg>
