<svg width="20" height="20" viewBox="0 0 20 20" fill="none" xmlns="http://www.w3.org/2000/svg">
<g id="more_horiz">
<mask id="mask0_88_953" style="mask-type:alpha" maskUnits="userSpaceOnUse" x="0" y="0" width="20" height="20">
<rect id="Bounding box" x="20" y="6.10352e-05" width="20" height="20" transform="rotate(90 20 6.10352e-05)" fill="#D9D9D9"/>
</mask>
<g mask="url(#mask0_88_953)">
<path id="more_horiz_2" d="M8.75 5.19235C8.75 4.8486 8.87243 4.55437 9.11729 4.30964C9.36201 4.06478 9.65625 3.94235 10 3.94235C10.3438 3.94235 10.638 4.06478 10.8827 4.30964C11.1276 4.55437 11.25 4.8486 11.25 5.19235C11.25 5.5361 11.1276 5.83041 10.8827 6.07527C10.638 6.31999 10.3437 6.44235 10 6.44235C9.65625 6.44235 9.36201 6.31999 9.11729 6.07527C8.87243 5.83041 8.75 5.5361 8.75 5.19235ZM8.75 10.0001C8.75 9.65631 8.87243 9.36208 9.11729 9.11735C9.36201 8.87249 9.65625 8.75006 10 8.75006C10.3437 8.75006 10.638 8.87249 10.8827 9.11735C11.1276 9.36208 11.25 9.65631 11.25 10.0001C11.25 10.3438 11.1276 10.638 10.8827 10.8828C10.638 11.1276 10.3437 11.2501 10 11.2501C9.65625 11.2501 9.36201 11.1276 9.11729 10.8828C8.87243 10.638 8.75 10.3438 8.75 10.0001ZM8.75 14.8078C8.75 14.464 8.87243 14.1697 9.11729 13.9249C9.36201 13.6801 9.65625 13.5578 10 13.5578C10.3437 13.5578 10.638 13.6801 10.8827 13.9249C11.1276 14.1697 11.25 14.464 11.25 14.8078C11.25 15.1515 11.1276 15.4458 10.8827 15.6905C10.638 15.9353 10.3437 16.0578 10 16.0578C9.65625 16.0578 9.36201 15.9353 9.11729 15.6905C8.87243 15.4458 8.75 15.1515 8.75 14.8078Z" fill="#1C1B1F"/>
</g>
</g>
</svg>
